<ttFont>
          <CharString index="0">
            rmoveto
            33 19 -10 33 -45 hhcurveto
            -44 hlineto
            -30 -23 -23 -33 -11 hvcurveto
            -24 -92 rlineto
            -35 -10 9 -21 33 hhcurveto
            23 hlineto
            24 19 17 29 0 callsubr
          </CharString>
          <CharString index="1">
            rmoveto
            -27 -24 -23 -20 -21 hvcurveto
            -76 -70 rlineto
            -18 -19 16 -25 23 hhcurveto
            71 hlineto
            27 23 21 20 21 hvcurveto
            16 15 17 -15 rlineto
            -20 21 23 -21 27 hhcurveto
            71 hlineto
            23 16 25 18 -19 hvcurveto
            -77 70 rlineto
            20 -21 -24 23 -27 hhcurveto
            return
          </CharString>
          <CharString index="2">
            rmoveto
            27 24 23 20 21 hvcurveto
            77 70 rlineto
            18 19 -16 25 -23 hhcurveto
            -71 hlineto
            -27 -23 -21 -20 -21 hvcurveto
            -17 -15 -16 15 rlineto
            20 -21 -23 21 -27 hhcurveto
            -71 hlineto
            -23 -16 -25 -18 19 hvcurveto
            76 -70 rlineto
            -20 21 24 -23 27 hhcurveto
            return
          </CharString>
          <CharString index="3">
            -72 callsubr
            47 hlineto
            35 21 21 35 hvcurveto
            19 vlineto
            35 -21 21 -35 vhcurveto
            -47 hlineto
            -35 -21 -21 -35 hvcurveto
            return
          </CharString>
          <CharString index="4">
            rmoveto
            -37 19 -19 37 14 callsubr
            37 19 19 37 hvcurveto
            19 vlineto
            37 -19 19 -37 vhcurveto
            -47 hlineto
            -37 -19 -19 -37 hvcurveto
            return
          </CharString>
          <CharString index="5">
            -42 24 -24 42 vhcurveto
            60 hlineto
            42 24 24 42 hvcurveto
            31 vlineto
            42 -24 24 -42 vhcurveto
            -60 hlineto
            -42 -24 -24 -42 hvcurveto
            return
          </CharString>
          <CharString index="6">
            -10 callgsubr
            vstem
            208 hmoveto
            25 21 20 25 hvcurveto
            237 105 vlineto
            63 37 -41 -59 37 hvcurveto
            86 -136 rlineto
            -26 16 34 -20 25 hhcurveto
            112 -66 callsubr
            -122 194 -28 43 -50 61 -48 10 rlinecurve
            68 16 33 47 25 45 106 192 rcurveline
            27 15 -5 20 -25 hhcurveto
            -113 hlineto
            -25 -27 -15 -32 -18 hvcurveto
            -76 -135 rlineto
            -70 -39 -41 -29 -57 hhcurveto
            -105 234 hlineto
            26 -16 callsubr
            -92 -29 callgsubr
            -21 -26 hvcurveto
            -607 vlineto
            -26 -30 callgsubr
            return
          </CharString>
          <CharString index="7">
            rmoveto
            47 19 -23 29 -52 hhcurveto
            -40 hlineto
            -32 -36 -25 -31 -6 hvcurveto
            -29 -157 rlineto
            -44 -8 11 -22 42 hhcurveto
            19 hlineto
            37 28 27 29 12 hvcurveto
            return
          </CharString>
          <CharString index="8">
            vlineto
            -100 callgsubr
            182 vlineto
            45 44 -21 -44 27 hvcurveto
            62 -101 rlineto
            -26 16 27 -20 32 hhcurveto
            92 -17 callgsubr
            134 -30 48 -33 28 -41 12 rlinecurve
            43 9 40 35 21 44 return
          </CharString>
          <CharString index="9">
            45 rmoveto
            -3 -13 1 -10 7 -9 rrcurveto
            -9 7 9 -4 13 hhcurveto
            96 hlineto
            31 19 15 31 8 5 callsubr
            -13 5 -11 9 -9 vhcurveto
            -9 9 10 -4 13 hhcurveto
            92 hlineto
            13 11 18 callsubr
            4 10 13 vvcurveto
            610 vlineto
            12 -4 11 -8 9 vhcurveto
            9 -8 -10 4 -12 hhcurveto
            -263 hlineto
            -182 -108 -63 -127 -34 hvcurveto
            177 -46 rmoveto
            65 17 43 33 69 hhcurveto
            139 -255 -311 hlineto
            return
          </CharString>
          <CharString index="10">
            rmoveto
            -85 -41 49 118 118 41 48 85 85 41 -48 -118 -118 -41 -49 -85 hvcurveto
            444 vmoveto
            -189 -106 -93 -184 -184 106 -94 189 189 106 94 184 184 -106 93 -189 hvcurveto
            return
          </CharString>
          <CharString index="11">
            rmoveto
            63 36 -41 -39 25 hvcurveto
            83 -130 rlineto
            -26 16 34 -20 25 hhcurveto
            117 -66 callsubr
            -89 141 -40 63 -30 35 -41 15 rlinecurve
            101 20 83 50 108 vvcurveto
            138 -109 84 -146 vhcurveto
            -403 hlineto
            -25 -20 -44 callsubr
            92 hlineto
            -43 callsubr
            210 vlineto
            208 306 rmoveto
            56 71 -20 -64 -64 -71 -20 -56 hvcurveto
            -208 168 hlineto
            return
          </CharString>
          <CharString index="12">
            -35 -18 22 43 43 18 22 35 hvcurveto
            96 -161 rmoveto
            27 24 13 32 40 vvcurveto
            41 -13 32 -27 23 vhcurveto
            23 -25 -32 11 -39 hhcurveto
            -39 -33 -11 -23 -25 hvcurveto
            -27 -23 -13 -32 -41 vvcurveto
            -40 13 -32 27 -24 vhcurveto
            -23 25 33 -11 39 hhcurveto
            39 32 11 23 25 hvcurveto
            return
          </CharString>
          <CharString index="13">
            rmoveto
            150 59 -38 callsubr
            -38 callsubr
            83 150 150 59 83 150 hvcurveto
            -393 -233 rmoveto
            -260 143 -105 250 250 143 105 260 260 -143 105 -250 -250 -143 -105 -260 vhcurveto
            return
          </CharString>
          <CharString index="14">
            rmoveto
            -107 callgsubr
            -438 vlineto
            -88 -35 -26 -30 vhcurveto
            -19 -13 7 -18 hhcurveto
            -15 hlineto
            -17 -13 -13 -17 hvcurveto
            -53 vlineto
            -15 13 -11 17 -4 vhcurveto
            -7 30 50 -3 30 hhcurveto
            119 70 70 160 hvcurveto
            -171 582 -60 callsubr
          </CharString>
          <CharString index="15">
            -102 callgsubr
            94 hlineto
            -105 callgsubr
            302 vlineto
            153 -113 60 -144 -162 -104 -36 -104 -102 callgsubr
            73 hlineto
            25 18 10 16 13 hvcurveto
            return
          </CharString>
          <CharString index="16">
            52 -1 136 -136 234 -216 -21 471 234 3 -20 hstemhm
            36 184 345 166 -166 184 hintmask 01010101
            36 500 rmoveto
            -259 529 65 -116 vvcurveto
            -35 -26 -21 -60 vhcurveto
            -171 3 rlineto
            -50 -38 16 34 -16 hvcurveto
            33 -16 -22 -63 callgsubr
            -107 135 -73 126 hvcurveto
            hintmask 00110101
            148 -3 rlineto
            240 70 84 120 hvcurveto
            261 -529 -67 116 vvcurveto
            35 26 21 60 vhcurveto
            147 -3 rlineto
            50 38 -16 -34 16 hvcurveto
            -33 16 22 -13 28 hhcurveto
            58 hlineto
            hintmask 10010110
            13 37 9 45 107 -135 73 -126 hvcurveto
            hintmask 10001110
            -124 3 rlineto
            -240 -70 -84 -120 hvcurveto
            endchar
          </CharString>
          <CharString index="17">
            -48 callsubr
            214 350 rmoveto
            155 70 78 139 139 70 -78 -155 -155 -70 -78 -139 -139 -70 78 155 vhcurveto
            209 365 rmoveto
            -262 -131 -122 -243 -243 131 -122 262 262 131 122 243 243 -131 122 -262 hvcurveto
            return
          </CharString>
          <CharString index="18">
            rmoveto
            -11 10 -9 11 vhcurveto
            186 -34 hlineto
            29 callsubr
            11 9 9 11 hvcurveto
            34 24 vlineto
            12 9 9 11 hvcurveto
            31 vlineto
            11 -9 9 -12 vhcurveto
            -24 164 hlineto
            11 -9 9 -11 vhcurveto
            -78 hlineto
            -15 -10 -4 -9 -9 hvcurveto
            -152 -162 rlineto
            -9 -10 -5 -9 -15 vvcurveto
            return
          </CharString>
          <CharString index="19">
            -97 -75 callsubr
            40 204 -33 callgsubr
            hintmask 01111110
            570 216 rmoveto
            -55 callgsubr
            28 vlineto
            87 -25 68 -51 47 vhcurveto
            46 -49 -70 23 -90 hhcurveto
            -89 -70 -24 -47 -50 hvcurveto
            -51 -49 -25 -69 -89 vvcurveto
            -89 25 -69 51 -48 vhcurveto
            -47 49 70 -24 90 hhcurveto
            178 89 47 93 20 -10 10 -20 hvcurveto
            -73 hlineto
            -23 -19 -9 -17 -14 hvcurveto
            hintmask 10111110
            -22 -18 -32 -11 -46 hhcurveto
            -77 -41 38 77 -7 hvcurveto
            -1 103 rmoveto
            77 4 38 38 72 hhcurveto
            72 38 -38 -77 3 hvcurveto
            return
          </CharString>
          <CharString index="20">
            -129 -5 callgsubr
            -111 170 215 31 callsubr
            200 169 hintmask 10011100
            568 148 rmoveto
            204 -369 -48 83 vvcurveto
            28 28 19 69 43 37 -12 -21 17 vhcurveto
            hintmask 10101100
            -16 13 18 -10 -50 callgsubr
            104 -104 36 -164 -151 -103 -45 -113 hvcurveto
            -202 369 46 -83 vvcurveto
            -28 -28 -19 -84 -43 -37 12 21 -17 vhcurveto
            hintmask 01101100
            -54 callgsubr
            104 -36 164 166 103 45 113 hvcurveto
            endchar
          </CharString>
          <CharString index="21">
            307 -65 callgsubr
            70 180 534 180 vstem
            552 hmoveto
            25 26 20 24 9 hvcurveto
            172 480 rlineto
            -477 6 callsubr
            88 hlineto
            26 20 21 26 hvcurveto
            606 vlineto
            26 -20 21 -25 vhcurveto
            -199 hlineto
            -26 -25 -21 -25 -8 hvcurveto
            -144 -417 -144 417 rlineto
            25 -8 -25 21 -26 hhcurveto
            -199 hlineto
            -25 -20 -21 -26 hvcurveto
            -606 6 callsubr
            88 hlineto
            26 20 21 26 hvcurveto
            477 vlineto
            172 -480 rlineto
            -24 9 26 -20 25 hhcurveto
            endchar
          </CharString>
          <CharString index="22">
            rmoveto
            -17 -13 -13 -17 hvcurveto
            -58 vlineto
            -102 callgsubr
            return
          </CharString>
          <CharString index="23">
            184 hmoveto
            185 123 91 170 hvcurveto
            393 -39 callgsubr
            -394 vlineto
            -89 -39 -33 -90 vhcurveto
            -35 hlineto
            -29 -26 9 -27 hhcurveto
            -16 hlineto
            -26 -26 callgsubr
            -55 -37 callgsubr
            return
          </CharString>
          <CharString index="24">
            104 -77 58 -93 -93 -77 -58 -104 -104 77 -58 93 93 77 58 104 vhcurveto
            return
          </CharString>
          <CharString index="25">
            202 147 rmoveto
            -26 -26 callgsubr
            -55 -37 callgsubr
            118 hlineto
            169 77 82 118 41 hvcurveto
            159 456 rlineto
            24 8 -14 20 -25 hhcurveto
            -99 hlineto
            -25 -26 -16 -29 -10 hvcurveto
            -88 -252 rlineto
            -60 hlineto
            -86 -45 43 74 -31 hvcurveto
            -56 136 rlineto
            25 -10 -25 19 -30 hhcurveto
            -103 hlineto
            -25 -13 -20 -26 11 hvcurveto
            77 -176 rlineto
            -144 63 77 -69 170 hhcurveto
            42 hlineto
            -85 -24 -45 -42 -64 hhcurveto
            -10 hlineto
            -29 -26 9 -27 hhcurveto
            return
          </CharString>
          <CharString index="26">
            rmoveto
            -11 -12 -2 -8 -8 hvcurveto
            -57 -48 -6 -5 -5 -6 6 -9 rlinecurve
            21 -28 4 -5 9 -2 6 4 rlinecurve
            25 18 rlineto
            -198 vlineto
            -10 callsubr
            50 hlineto
            12 9 9 11 hvcurveto
            269 vlineto
            11 -9 9 -12 vhcurveto
            return
          </CharString>
          <CharString index="27">
            -39 -26 40 -55 hhcurveto
            -50 -55 -38 -92 -10 4 -5 11 hvcurveto
            40 hlineto
            29 -9 35 35 hhcurveto
            return
          </CharString>
          <CharString index="28">
            117 21 -21 296 138 266 -10 callgsubr
            336 -48 callsubr
            590 45 rmoveto
            -94 callgsubr
            -220 -336 220 -56 callgsubr
            -91 hlineto
            -26 -18 callgsubr
            26 vhcurveto
            91 hlineto
            25 21 20 25 hvcurveto
            251 336 vlineto
            endchar
          </CharString>
          <CharString index="29">
            rmoveto
            -29 10 -35 -35 hhcurveto
            hintmask 00001000
            -80 callsubr
            hintmask 00100000
            -71 callsubr
          </CharString>
          <CharString index="30">
            26 12 -3 20 -26 hhcurveto
            -92 hlineto
            -29 -28 -18 -28 -13 hvcurveto
            -47 -100 rlineto
            -42 -20 -38 -24 -58 hhcurveto
            return
          </CharString>
          <CharString index="31">
            -17 13 -13 17 vhcurveto
            109 hlineto
            -74 callgsubr
            return
          </CharString>
          <CharString index="32">
            -5 callgsubr
            -111 170 56 103 115 111 return
          </CharString>
          <CharString index="33">
            -109 hlineto
            return
          </CharString>
          <CharString index="34">
            -56 callsubr
            3 callgsubr
            25 -20 21 -25 vhcurveto
            -144 hlineto
            -24 -29 -22 -24 -14 hvcurveto
            -278 -488 rlineto
            489 25 callgsubr
            -86 hlineto
            -26 -26 callgsubr
            -608 -37 callgsubr
            162 hlineto
            26 31 21 25 14 hvcurveto
            255 453 rlineto
            -453 -27 callsubr
            endchar
          </CharString>
          <CharString index="35">
            -35 21 -21 35 vhcurveto
            return
          </CharString>
          <CharString index="36">
            39 26 -40 55 hhcurveto
            50 54 38 92 10 -4 5 -11 hvcurveto
            endchar
          </CharString>
          <CharString index="37">
            -59 callsubr
            3 callgsubr
            26 return
          </CharString>
          <CharString index="38">
            rmoveto
            20 13 -4 12 -25 hhcurveto
            -68 hlineto
            -27 -16 -11 -21 -13 hvcurveto
            -405 -636 rlineto
            -20 -12 3 -12 25 hhcurveto
            68 hlineto
            27 16 11 21 13 hvcurveto
            return
          </CharString>
          <CharString index="39">
            390 279 rmoveto
            24 -11 16 -18 13 vhcurveto
            -278 197 rlineto
            -22 16 -21 -13 -23 vvcurveto
            -84 vlineto
            -30 19 -19 24 -17 vhcurveto
            130 -92 -130 -92 rlineto
            -24 -17 -19 -19 -30 vvcurveto
            -84 vlineto
            -23 21 -13 22 16 vhcurveto
            278 197 rlineto
            18 13 11 16 24 vvcurveto
            endchar
          </CharString>
          <CharString index="40">
            255 rmoveto
            -24 11 -16 18 -13 vhcurveto
            278 -197 rlineto
            22 -16 21 13 23 vvcurveto
            84 vlineto
            30 -19 19 -24 17 vhcurveto
            -130 92 130 92 rlineto
            24 17 19 19 30 vvcurveto
            84 vlineto
            23 -21 13 -22 -16 vhcurveto
            -278 -197 rlineto
            -18 -13 -11 -16 -24 vvcurveto
            endchar
          </CharString>
          <CharString index="41">
            hlineto
            26 7 20 26 -16 hvcurveto
            return
          </CharString>
          <CharString index="42">
            179 -126 77 -157 -78 -57 -26 -35 -41 vhcurveto
            144 64 vlineto
            -105 callgsubr
            76 vlineto
            -106 callgsubr
            -312 hlineto
            -17 -13 -13 -17 hvcurveto
            -76 vlineto
            -102 callgsubr
            64 -518 hlineto
            -26 21 -20 26 vhcurveto
            91 hlineto
            25 21 15 callgsubr
            return
          </CharString>
          <CharString index="43">
            rmoveto
            74 36 -40 -75 3 hvcurveto
            -227 hlineto
            75 4 38 40 72 hhcurveto
            return
          </CharString>
          <CharString index="44">
            rmoveto
            -31 vlineto
            -11 9 -9 12 vhcurveto
            259 hlineto
            12 9 9 11 hvcurveto
            30 vlineto
            12 -9 9 -12 vhcurveto
            -179 hlineto
            49 203 -26 114 vvcurveto
            82 -68 21 -72 vhcurveto
            -29 hlineto
            -61 -74 -32 -62 -20 17 -4 5 hvcurveto
            36 hlineto
            13 9 6 14 7 hvcurveto
            return
          </CharString>
          <CharString index="45">
            rmoveto
            -17 9 -15 10 -13 vhcurveto
            100 -128 rlineto
            -13 10 12 -9 18 hhcurveto
            60 hlineto
            20 4 17 23 -14 hvcurveto
            -102 167 102 167 rlineto
            23 14 -4 17 -20 hhcurveto
            -60 hlineto
            -18 -12 -9 -13 -10 hvcurveto
            -100 -128 rlineto
            -10 -13 -9 -15 -17 vvcurveto
            return
          </CharString>
          <CharString index="46">
            -35 callgsubr
            144 138 142 138 return
          </CharString>
          <CharString index="47">
            -88 callgsubr
            endchar
          </CharString>
          <CharString index="48">
            21 25 hvcurveto
            return
          </CharString>
          <CharString index="49">
            -145 -73 -117 -45 37 -9 13 hvcurveto
            58 hlineto
            28 22 13 33 16 hvcurveto
            return
          </CharString>
          <CharString index="50">
            hvcurveto
            46 -56 callgsubr
            return
          </CharString>
          <CharString index="51">
            25 21 -59 callsubr
            return
          </CharString>
          <CharString index="52">
            36 36 46 34 49 hhcurveto
            55 38 -34 -83 hvcurveto
            return
          </CharString>
          <CharString index="53">
            -4 -9 -9 hvcurveto
            -9 -9 return
          </CharString>
          <CharString index="54">
            20 -15 callgsubr
            return
          </CharString>
          <CharString index="55">
            hlineto
            146 120 80 151 151 -120 80 -146 hvcurveto
            return
          </CharString>
          <CharString index="56">
            -13 -50 callsubr
            return
          </CharString>
          <CharString index="57">
            28 hhcurveto
            58 hlineto
            13 37 9 45 return
          </CharString>
          <CharString index="58">
            21 -21 callgsubr
            return
          </CharString>
          <CharString index="59">
            184 vstem
            return
          </CharString>
          <CharString index="60">
            26 20 15 callgsubr
            46 vlineto
            26 -20 20 -26 vhcurveto
            return
          </CharString>
          <CharString index="61">
            hlineto
            -142 -141 -35 -155 -41 hvcurveto
            -124 -469 rlineto
            -22 -6 16 -19 22 hhcurveto
            99 hlineto
            26 25 20 26 7 hvcurveto
            112 418 rlineto
            60 16 50 38 63 hhcurveto
            return
          </CharString>
          <CharString index="62">
            rlineto
            23 15 -7 23 -25 hhcurveto
            -93 hlineto
            -40 -28 -20 -26 -17 hvcurveto
            -158 -244 -158 244 rlineto
            26 -17 -28 20 -40 hhcurveto
            -93 hlineto
            -25 -7 -23 -23 15 hvcurveto
            return
          </CharString>
          <CharString index="63">
            -20 -26 hvcurveto
            -608 -27 callsubr
            return
          </CharString>
          <CharString index="64">
            26 20 -59 callsubr
            return
          </CharString>
          <CharString index="65">
            rmoveto
            27 -10 20 -30 15 vhcurveto
            25 16 11 23 23 vvcurveto
            74 -68 21 -72 vhcurveto
            -30 hlineto
            -60 -74 -37 -52 -20 16 -4 6 hvcurveto
            30 hlineto
            17 8 14 11 10 hvcurveto
            return
          </CharString>
          <CharString index="66">
            46 20 -9 -17 -18 -18 -7 -47 hvcurveto
            -41 hlineto
            -12 -8 -8 -12 hvcurveto
            -41 vlineto
            -12 8 -8 12 vhcurveto
            41 hlineto
            101 58 32 74 59 -39 28 -70 6 hvcurveto
            return
          </CharString>
          <CharString index="67">
            rmoveto
            44 25 -29 32 -52 hhcurveto
            -40 hlineto
            -32 -33 -26 -30 -9 hvcurveto
            -39 -129 rlineto
            -43 -13 16 -23 42 hhcurveto
            19 hlineto
            37 24 28 28 16 hvcurveto
            endchar
          </CharString>
          <CharString index="68">
            -20 -53 callgsubr
            return
          </CharString>
          <CharString index="69">
            -83 -150 -150 -59 return
          </CharString>
          <CharString index="70">
            -35 callgsubr
            562 -20 return
          </CharString>
          <CharString index="71">
            -21 535 -20 return
          </CharString>
          <CharString index="72">
            15 -6 -12 10 -16 hhcurveto
            -40 hlineto
            -17 -10 -7 -18 -90 66 -55 98 98 66 55 90 18 -10 7 -17 hvcurveto
            -40 hlineto
            -16 -12 -10 -15 -6 hvcurveto
            return
          </CharString>
          <CharString index="73">
            -60 callgsubr
            -92 -29 callgsubr
            -20 -25 hvcurveto
            return
          </CharString>
          <CharString index="74">
            -13 5 -10 9 -9 vhcurveto
            -9 9 return
          </CharString>
          <CharString index="75">
            -37 callsubr
            hstem
            return
          </CharString>
          <CharString index="76">
            -25 -53 callsubr
            return
          </CharString>
          <CharString index="77">
            -20 10 -10 20 return
          </CharString>
          <CharString index="78">
            rmoveto
            33 6 -21 22 -34 hhcurveto
            -39 hlineto
            -27 -20 -28 -28 hvcurveto
            -2 -135 rlineto
            -34 13 -12 27 vhcurveto
            14 hlineto
            26 17 9 27 6 hvcurveto
            return
          </CharString>
          <CharString index="79">
            -45 -10 -9 callsubr
            return
          </CharString>
          <CharString index="80">
            vlineto
            -42 callgsubr
            return
          </CharString>
          <CharString index="81">
            186 hlineto
            138 vmoveto
            192 -56 callgsubr
            -92 hlineto
            -26 -26 callgsubr
            -607 vlineto
            -25 19 -22 25 vhcurveto
            return
          </CharString>
          <CharString index="82">
            5 callgsubr
            -13 return
          </CharString>
          <CharString index="83">
            21 -36 callsubr
            return
          </CharString>
          <CharString index="84">
            20 -25 vhcurveto
            return
          </CharString>
          <CharString index="85">
            516 vlineto
            -34 callsubr
            return
          </CharString>
          <CharString index="86">
            24 callsubr
            39 hlineto
            35 21 21 35 hvcurveto
            19 vlineto
            35 -21 21 -35 vhcurveto
            -39 hlineto
            -35 -21 -21 -35 hvcurveto
            return
          </CharString>
          <CharString index="87">
            700 rmoveto
            return
          </CharString>
          <CharString index="88">
            -32 callsubr
            70 184 return
          </CharString>
          <CharString index="89">
            -95 -175 116 594 -20 return
          </CharString>
          <CharString index="90">
            -24 callsubr
            hstem
            return
          </CharString>
          <CharString index="91">
            -21 21 -25 vhcurveto
            return
          </CharString>
          <CharString index="92">
            -43 21 36 -17 hvcurveto
            hintmask 01110100
            41 -19 -23 -63 callgsubr
            -122 145 -73 return
          </CharString>
          <CharString index="93">
            109 hlineto
            return
          </CharString>
          <CharString index="94">
            hlineto
            33 114 rlineto
            26 7 -9 20 -25 hhcurveto
            -56 hlineto
            -43 -29 -17 -29 -8 hvcurveto
            -33 -114 rlineto
            return
          </CharString>
          <CharString index="95">
            57 25 -35 -58 -58 -25 -35 -57 hvcurveto
            return
          </CharString>
          <CharString index="96">
            -30 callsubr
            vhcurveto
            return
          </CharString>
          <CharString index="97">
            -12 9 -8 11 vhcurveto
            return
          </CharString>
          <CharString index="98">
            118 -87 -36 callsubr
            return
          </CharString>
          <CharString index="99">
            138 hstem
            2 callsubr
            return
          </CharString>
          <CharString index="100">
            114 112 114 return
          </CharString>
          <CharString index="101">
            106 56 157 60 -21 46 -56 35 hvcurveto
            46 35 21 52 53 vvcurveto
            166 -131 48 return
          </CharString>
          <CharString index="102">
            0 118 417 -39 callsubr
            153 169 153 169 cntrmask 00111000
            return
          </CharString>
          <CharString index="103">
            20 10 19 7 26 hhcurveto
            16 hlineto
            38 16 -9 -23 hvcurveto
            -50 -212 27 -134 vvcurveto
            return
          </CharString>
          <CharString index="104">
            7 callsubr
            418 184 return
          </CharString>
          <CharString index="105">
            116 -20 callsubr
            return
          </CharString>
          <CharString index="106">
            30 184 return
          </CharString>
          <CharString index="107">
            17 hvcurveto
            endchar
          </CharString>
          <CharString index="108">
            -4 138 return
          </CharString>
          <CharString index="109">
            70 184 return
          </CharString>
          <CharString index="110">
            rmoveto
            -80 -45 47 82 82 45 46 80 80 45 -46 -82 -82 -45 -47 -80 hvcurveto
            return
          </CharString>
          <CharString index="111">
            1 callsubr
            -138 249 39 132 44 244 -138 138 hstemhm
            return
          </CharString>
          <CharString index="112">
            hvcurveto
            33 123 rlineto
            347 -123 hlineto
            return
          </CharString>
          <CharString index="113">
            vlineto
            -26 -53 callsubr
            return
          </CharString>
          <CharString index="114">
            hstemhm
            -1 callsubr
            return
          </CharString>
          <CharString index="115">
            -21 427 118 return
          </CharString>
          <CharString index="116">
            4 -13 hhcurveto
            return
          </CharString>
          <CharString index="117">
            -10 118 -87 8 callsubr
            155 -20 hstemhm
            30 174 return
          </CharString>
          <CharString index="118">
            -21 256 25 callsubr
            return
          </CharString>
          <CharString index="119">
            -100 callgsubr
            387 return
          </CharString>
          <CharString index="120">
            rlineto
            15 7 15 16 17 vvcurveto
            78 vlineto
            17 -15 10 -15 -7 vhcurveto
            return
          </CharString>
          <CharString index="121">
            vhcurveto
            47 hlineto
            return
          </CharString>
          <CharString index="122">
            30 169 return
          </CharString>
          <CharString index="123">
            21 8 callsubr
            -10 -20 return
          </CharString>
          <CharString index="124">
            hstemhm
            15 callsubr
            252 169 return
          </CharString>
          <CharString index="125">
            4 -49 callgsubr
            return
          </CharString>
          <CharString index="126">
            138 7 callsubr
            return
          </CharString>
          <CharString index="127">
            vlineto
            -47 callsubr
            return
          </CharString>
          <CharString index="128">
            204 -25 callsubr
            return
          </CharString>
          <CharString index="129">
            -10 -21 94 132 310 132 94 -20 hstem
            return
          </CharString>
          <CharString index="130">
            -27 -11 -21 -13 -34 hhcurveto
            -34 -21 13 27 -11 hvcurveto
            return
          </CharString>
          <CharString index="131">
            rmoveto
            -72 callsubr
            return
          </CharString>
          <CharString index="132">
            138 168 138 return
          </CharString>
          <CharString index="133">
            118 152 -20 hstem
            172 118 vstem
            return
          </CharString>
          <CharString index="134">
            -338 -130 113 644 113 hstem
            return
          </CharString>
          <CharString index="135">
            170 -111 111 hstemhm
            return
          </CharString>
          <CharString index="136">
            -10 callsubr
            51 hlineto
            return
          </CharString>
          <CharString index="137">
            433 -21 288 -20 hstem
            38 127 return
          </CharString>
          <CharString index="138">
            28 callsubr
            15 callsubr
            return
          </CharString>
        <CharString name=".notdef">
          -377 endchar
        </CharString>
        <CharString name="A">
          -61 callgsubr
          hstem
          580 -48 callsubr
          12 45 -98 callgsubr
          endchar
        </CharString>
        <CharString name="AE">
          508 -35 callgsubr
          31 138 -25 138 142 138 hstemhm
          560 184 hintmask 11011000
          1169 -20 callsubr
          -710 hlineto
          -142 -141 -35 -155 -41 hvcurveto
          -123 -465 rlineto
          -25 -7 15 -20 26 hhcurveto
          96 hlineto
          26 25 20 26 7 hvcurveto
          33 123 rlineto
          327 -122 hlineto
          -26 -53 callsubr
          561 hlineto
          -43 callsubr
          47 vlineto
          25 -20 -23 callsubr
          -424 hlineto
          hintmask 10111000
          12 callgsubr
          vlineto
          -56 callsubr
          46 vlineto
          25 -16 callsubr
          -366 142 425 hlineto
          25 21 20 26 -57 callsubr
          -857 -236 rmoveto
          60 16 50 38 63 hhcurveto
          119 hlineto
          hintmask 11011000
          -255 -291 vlineto
          endchar
        </CharString>
        <CharString name="Aacute">
          -61 callgsubr
          55 204 hstem
          580 -48 callsubr
          12 -98 callsubr
          333 586 -107 callsubr
        </CharString>
        <CharString name="Acircumflex">
          107 300 -15 65 195 endchar
        </CharString>
        <CharString name="Adieresis">
          -61 callgsubr
          70 131 hstemhm
          290 -23 callgsubr
          -111 184 hintmask 11111010
          15 -98 callsubr
          18 519 -103 callsubr
          hintmask 11111100
          245 -19 -103 callsubr
          endchar
        </CharString>
        <CharString name="Agrave">
          -61 callgsubr
          55 204 hstem
          580 -48 callsubr
          12 -98 callsubr
          147 494 -101 callgsubr
          endchar
        </CharString>
        <CharString name="Aring">
          -61 callgsubr
          36 65 130 65 hstemhm
          342 84 105 84 -35 184 hintmask 00011110
          479 931 -12 callgsubr
          -95 callsubr
          hintmask 11100001
          -563 -725 -98 callgsubr
          endchar
        </CharString>
        <CharString name="Atilde">
          -61 callgsubr
          55 17 callgsubr
          580 184 hintmask 11100010
          12 45 -98 callgsubr
          hintmask 00001000
          340 593 rmoveto
          -29 10 -35 -35 hhcurveto
          hintmask 00000100
          -80 callsubr
          hintmask 00010000
          -71 callsubr
        </CharString>
        <CharString name="B">
          -85 callgsubr
        </CharString>
        <CharString name="C">
          90 -3 callgsubr
          vstem
          -96 callgsubr
          endchar
        </CharString>
        <CharString name="Ccaron">
          90 1 callsubr
          432 138 38 156 7 callsubr
          hintmask 11010000
          -96 callgsubr
          hintmask 00100000
          418 392 -105 callsubr
          endchar
        </CharString>
        <CharString name="Ccedilla">
          90 -238 81 51 240 -136 136 -117 -21 570 19 callsubr
          136 209 -94 94 hintmask 10011110
          450 -4 rmoveto
          61 hlineto
          136 145 73 142 45 -37 9 -13 hvcurveto
          -58 hlineto
          -28 -23 -13 -41 -19 hvcurveto
          hintmask 11001110
          -47 -22 -38 -30 -60 hhcurveto
          -97 hlineto
          -144 -39 53 163 163 39 53 144 hvcurveto
          87 hlineto
          60 38 -30 -47 22 hvcurveto
          -41 19 23 -51 callsubr
          142 -27 callgsubr
          -239 -123 -111 -243 hvcurveto
          hintmask 10101110
          -225 105 -112 215 -15 vhcurveto
          -84 vlineto
          hintmask 11001101
          -12 8 -8 12 vhcurveto
          29 hlineto
          -41 callsubr
          endchar
        </CharString>
        <CharString name="D">
          97 -35 callgsubr
          424 -8 callsubr
          356 -48 callsubr
          -64 callgsubr
          endchar
        </CharString>
        <CharString name="Dcaron">
          97 -35 callgsubr
          424 138 52 156 hstemhm
          2 callsubr
          356 184 hintmask 11011000
          -64 callgsubr
          hintmask 00100000
          187 190 -105 callsubr
          endchar
        </CharString>
        <CharString name="E">
          18 -61 callsubr
          hstem
          70 -48 callsubr
          -99 callgsubr
          endchar
        </CharString>
        <CharString name="Eacute">
          18 -61 callsubr
          55 21 callsubr
          -10 -54 callsubr
          -5 -10 -13 vvcurveto
          2 callgsubr
          -13 4 -11 9 -9 vhcurveto
          -9 9 11 -5 13 hhcurveto
          561 hlineto
          13 11 19 callgsubr
          4 10 13 vvcurveto
          47 vlineto
          13 -4 10 24 callgsubr
          9 callsubr
          -424 12 callgsubr
          hlineto
          13 10 19 callgsubr
          5 10 13 vvcurveto
          46 vlineto
          13 -5 10 24 callgsubr
          5 -13 hhcurveto
          -366 142 425 hlineto
          13 10 18 callsubr
          5 11 13 vvcurveto
          46 vlineto
          13 -5 11 24 callgsubr
          9 callsubr
          -154 193 -107 callsubr
        </CharString>
        <CharString name="Ecaron">
          18 196 -25 69 207 endchar
        </CharString>
        <CharString name="Ecircumflex">
          18 196 -13 69 195 endchar
        </CharString>
        <CharString name="Edieresis">
          18 -61 callsubr
          64 131 hstemhm
          2 callsubr
          -54 -23 callgsubr
          hintmask 11101000
          -99 callgsubr
          hintmask 00010110
          -479 120 rmoveto
          -104 callgsubr
        </CharString>
        <CharString name="Egrave">
          18 -61 callsubr
          55 21 callsubr
          -10 -54 callsubr
          -5 -10 -13 vvcurveto
          2 callgsubr
          -13 4 -11 9 -9 vhcurveto
          -9 9 11 -5 13 hhcurveto
          561 hlineto
          13 11 19 callgsubr
          4 10 13 vvcurveto
          47 vlineto
          13 -4 10 24 callgsubr
          9 callsubr
          -424 12 callgsubr
          hlineto
          13 10 19 callgsubr
          5 10 13 vvcurveto
          46 vlineto
          13 -5 10 24 callgsubr
          5 -13 hhcurveto
          -366 142 425 hlineto
          13 10 18 callsubr
          5 11 13 vvcurveto
          46 vlineto
          13 -5 11 24 callgsubr
          9 callsubr
          -340 101 -101 callgsubr
          endchar
        </CharString>
        <CharString name="Eth">
          117 -35 callgsubr
          152 110 162 138 hstem
          90 184 356 -48 callsubr
          30 400 rmoveto
          -17 -13 -13 -17 hvcurveto
          -50 vlineto
          -102 callgsubr
          60 -245 hlineto
          30 callgsubr
          273 hlineto
          285 120 111 239 239 -120 111 -285 hvcurveto
          -273 hlineto
          -26 -20 -21 -26 hvcurveto
          -253 vlineto
          314 162 rmoveto
          179 47 -62 -150 -150 -47 -62 -179 hvcurveto
          -130 152 86 hlineto
          -105 callgsubr
          50 vlineto
          -106 callgsubr
          -86 162 hlineto
          endchar
        </CharString>
        <CharString name="Euro">
          138 1 callsubr
          150 53 27 53 149 138 hstem
          337 vmoveto
          -23 vlineto
          -102 callgsubr
          51 hlineto
          -198 20 122 -90 217 hhcurveto
          -45 callgsubr
          255 hlineto
          -105 callgsubr
          23 vlineto
          15 27 rmoveto
          23 vlineto
          -106 callgsubr
          -270 -41 callgsubr
          -109 hlineto
          -216 -121 -91 -196 -22 hvcurveto
          -36 hlineto
          -17 -13 -13 -17 hvcurveto
          -23 vlineto
          endchar
        </CharString>
        <CharString name="F">
          8 21 -21 252 138 172 -8 callsubr
          vstem
          208 hmoveto
          26 20 21 26 hvcurveto
          205 346 vlineto
          -56 callsubr
          46 vlineto
          25 -16 callsubr
          -346 172 425 hlineto
          25 21 20 26 -57 callsubr
          -563 -29 callgsubr
          -20 -25 hvcurveto
          -608 6 callsubr
          endchar
        </CharString>
        <CharString name="G">
          101 1 callsubr
          116 130 90 234 -138 19 callsubr
          403 181 hintmask 11011100
          617 250 rmoveto
          -70 -1 -36 -46 -110 hhcurveto
          -100 hlineto
          -117 -39 53 163 163 39 53 144 hvcurveto
          87 hlineto
          60 46 -16 -34 18 hvcurveto
          hintmask 11101100
          -32 17 21 -14 -50 callsubr
          107 -27 callgsubr
          -239 -123 -111 -243 -243 123 -111 212 hvcurveto
          110 hlineto
          215 108 104 180 hvcurveto
          54 vlineto
          25 -16 callsubr
          -245 -29 callgsubr
          -21 -25 hvcurveto
          -38 -27 callsubr
          endchar
        </CharString>
        <CharString name="H">
          -79 callsubr
        </CharString>
        <CharString name="I">
          -403 -65 callgsubr
          70 -48 callsubr
          70 45 rmoveto
          -94 callgsubr
          endchar
        </CharString>
        <CharString name="Iacute">
          -402 21 -21 755 204 hstem
          70 -48 callsubr
          70 45 rmoveto
          11 callgsubr
          -4 13 hhcurveto
          91 hlineto
          13 11 19 callgsubr
          5 10 13 vvcurveto
          3 callgsubr
          13 -5 11 -9 9 vhcurveto
          9 -9 -11 9 callsubr
          -91 hlineto
          -13 -10 -54 callsubr
          -5 -11 -13 vvcurveto
          225 239 -107 callsubr
        </CharString>
        <CharString name="Icircumflex">
          -392 21 -21 700 -20 64 156 hstemhm
          75 184 hintmask 11010000
          75 45 rmoveto
          -94 callgsubr
          hintmask 00100000
          62 246 -106 callsubr
          endchar
        </CharString>
        <CharString name="Idieresis">
          -383 21 -21 700 -20 74 131 hstemhm
          -30 159 -49 184 -49 159 hintmask 11001000
          80 45 rmoveto
          -94 callgsubr
          hintmask 00110100
          -110 156 rmoveto
          -104 callgsubr
        </CharString>
        <CharString name="Igrave">
          -403 21 -21 755 204 hstem
          70 -48 callsubr
          70 45 rmoveto
          11 callgsubr
          -4 13 hhcurveto
          91 hlineto
          13 11 19 callgsubr
          5 10 13 vvcurveto
          3 callgsubr
          13 -5 11 -9 9 vhcurveto
          9 -9 -11 9 callsubr
          -91 hlineto
          -13 -10 -54 callsubr
          -5 -11 -13 vvcurveto
          19 147 -101 callgsubr
          endchar
        </CharString>
        <CharString name="Itilde">
          -403 -25 155 73 196 endchar
        </CharString>
        <CharString name="J">
          -175 -32 callsubr
          308 -48 callsubr
          -84 callsubr
          endchar
        </CharString>
        <CharString name="Jcircumflex">
          -174 -37 callsubr
          81 156 hstemhm
          308 184 hintmask 11010000
          -84 callsubr
          hintmask 00100000
          319 917 -106 callsubr
          endchar
        </CharString>
        <CharString name="K">
          68 21 -21 282 138 281 -101 callsubr
          endchar
        </CharString>
        <CharString name="L">
          8 0 138 562 -20 5 callgsubr
          -26 -20 -21 -26 hvcurveto
          2 callgsubr
          30 callgsubr
          563 hlineto
          25 21 20 26 -57 callsubr
          -425 515 hlineto
          26 -20 21 -26 vhcurveto
          endchar
        </CharString>
        <CharString name="Lacute">
          8 -35 callgsubr
          617 204 -76 callgsubr
          77 193 -107 callsubr
        </CharString>
        <CharString name="Lcaron">
          8 0 138 562 -20 -76 callgsubr
          237 -55 -79 callgsubr
        </CharString>
        <CharString name="Lslash">
          38 -32 callsubr
          100 -48 callsubr
          30 356 4 callgsubr
          -207 vlineto
          30 callgsubr
          563 hlineto
          25 21 20 26 -57 callsubr
          -425 203 hlineto
          75 37 13 callsubr
          -75 -37 rlineto
          174 vlineto
          26 -20 21 -26 vhcurveto
          -92 hlineto
          -26 -20 -21 -26 hvcurveto
          -263 vlineto
          endchar
        </CharString>
        <CharString name="M">
          -86 callsubr
        </CharString>
        <CharString name="N">
          140 -65 callgsubr
          70 178 373 176 vstem
          -73 callgsubr
          endchar
        </CharString>
        <CharString name="Nacute">
          140 21 -21 700 -20 50 204 hstemhm
          70 178 373 176 hintmask 11011000
          -73 callgsubr
          hintmask 00100000
          456 868 -107 callsubr
        </CharString>
        <CharString name="Ncaron">
          140 247 -35 78 207 endchar
        </CharString>
        <CharString name="Ntilde">
          140 266 125 78 196 endchar
        </CharString>
        <CharString name="O">
          -31 callgsubr
          hstem
          -1 callsubr
          418 -48 callsubr
          423 583 -94 callsubr
          endchar
        </CharString>
        <CharString name="OE">
          488 -61 callsubr
          hstem
          -1 callsubr
          326 -48 callsubr
          1149 -20 callsubr
          -714 hlineto
          -285 -120 -111 -239 -239 120 -111 285 hvcurveto
          712 hlineto
          -43 callsubr
          47 vlineto
          25 -20 -23 callsubr
          -424 12 callgsubr
          hlineto
          -56 callsubr
          46 vlineto
          25 -16 callsubr
          -366 142 425 hlineto
          25 21 20 26 -57 callsubr
          -709 -138 rmoveto
          100 -424 -100 hlineto
          -179 -47 62 150 150 47 62 179 hvcurveto
          endchar
        </CharString>
        <CharString name="Oacute">
          -31 callgsubr
          40 204 hstem
          -1 callsubr
          418 -90 callsubr
          132 178 -107 callsubr
        </CharString>
        <CharString name="Ocircumflex">
          -31 callgsubr
          72 156 -3 callsubr
          hintmask 00100000
          400 943 -106 callsubr
          hintmask 11011000
          -37 -360 -94 callsubr
          endchar
        </CharString>
        <CharString name="Odieresis">
          -31 callgsubr
          58 131 hstem
          -1 callsubr
          10 -23 callgsubr
          4 -90 callsubr
          -199 114 -103 callsubr
          245 -19 -103 callsubr
          endchar
        </CharString>
        <CharString name="Ograve">
          -31 callgsubr
          40 204 hstem
          -1 callsubr
          418 -90 callsubr
          -64 86 -101 callgsubr
          endchar
        </CharString>
        <CharString name="Oslash">
          -15 132 -96 -21 583 132 -3 callsubr
          hintmask 01111000
          800 654 rmoveto
          20 19 -4 26 -32 hhcurveto
          -82 hlineto
          -27 -19 -20 -14 -16 hvcurveto
          32 -59 -82 17 -75 hhcurveto
          -250 -143 -105 -260 -107 29 -81 41 -58 hvcurveto
          -54 -58 rlineto
          -20 -19 4 -26 32 hhcurveto
          82 hlineto
          26 20 20 13 16 hvcurveto
          hintmask 10111000
          -30 59 82 -18 75 hhcurveto
          250 143 105 260 107 -30 81 -41 58 hvcurveto
          -113 -246 rmoveto
          -150 -59 -83 -150 -43 -36 7 13 -29 vhcurveto
          302 322 rlineto
          10 -31 5 -36 -42 vvcurveto
          -209 233 rmoveto
          43 35 -7 -13 29 hvcurveto
          -302 -323 rlineto
          -10 31 -4 37 42 vvcurveto
          150 59 83 150 vhcurveto
          endchar
        </CharString>
        <CharString name="Otilde">
          -31 callgsubr
          40 110 -70 70 -70 110 -3 callsubr
          hintmask 11000110
          423 583 -94 callsubr
          hintmask 00010000
          505 550 -78 callsubr
        </CharString>
        <CharString name="P">
          76 21 -21 156 138 268 -8 callsubr
          345 -48 callsubr
          432 562 rmoveto
          96 71 -20 -114 -114 -71 -20 -96 hvcurveto
          -178 268 hlineto
          -139 138 rmoveto
          -25 -20 -44 callsubr
          92 hlineto
          -43 callsubr
          110 234 vlineto
          186 109 84 188 188 -109 84 -186 hvcurveto
          endchar
        </CharString>
        <CharString name="Q">
          117 -5 132 456 132 -3 callsubr
          -184 212 hintmask 11101000
          30 355 rmoveto
          -255 143 -105 250 vhcurveto
          375 hlineto
          26 20 15 callgsubr
          40 vlineto
          26 -20 20 -26 vhcurveto
          -78 hlineto
          hintmask 11110000
          30 33 66 70 135 vvcurveto
          255 -143 95 -250 -250 -143 -105 -255 vhcurveto
          393 228 rmoveto
          150 59 -73 -145 -145 -59 -93 -150 -150 -59 83 145 145 59 83 150 hvcurveto
          endchar
        </CharString>
        <CharString name="R">
          27 callgsubr
          hstem
          70 184 335 -48 callsubr
          373 256 -96 callsubr
          endchar
        </CharString>
        <CharString name="Racute">
          27 callgsubr
          55 204 hstem
          2 callsubr
          335 -48 callsubr
          373 256 rmoveto
          49 41 -27 -53 34 hvcurveto
          83 -130 rlineto
          -31 19 25 -15 31 hhcurveto
          117 hlineto
          13 8 4 9 3 hvcurveto
          3 9 -2 11 -8 13 -89 141 rcurveline
          -40 63 -37 37 -34 13 rrcurveto
          123 24 61 59 95 vvcurveto
          68 -24 54 -49 41 vhcurveto
          39 -47 -60 20 -75 hhcurveto
          -403 hlineto
          -13 -10 -54 callsubr
          -4 -11 -13 vvcurveto
          2 callgsubr
          11 callgsubr
          -5 13 hhcurveto
          92 hlineto
          13 11 19 callgsubr
          4 10 13 vvcurveto
          210 vlineto
          208 306 rmoveto
          33 29 -6 -12 23 hvcurveto
          28 -15 14 -22 -29 vvcurveto
          -29 -14 -22 -28 -15 vhcurveto
          -12 -23 -29 -6 -33 hhcurveto
          -208 168 hlineto
          261 331 -107 callsubr
        </CharString>
        <CharString name="Rcaron">
          27 callgsubr
          42 156 hstemhm
          2 callsubr
          335 184 hintmask 11101100
          373 256 -96 callsubr
          hintmask 00010000
          189 180 -105 callsubr
          endchar
        </CharString>
        <CharString name="Rcommaaccent">
          81 -227 237 11 11 callsubr
          hstemhm
          2 callsubr
          335 184 hintmask 10000000
          481 -45 -29 callsubr
          hintmask 01111100
          -74 447 -96 callsubr
          endchar
        </CharString>
        <CharString name="S">
          -91 callsubr
        </CharString>
        <CharString name="Scaron">
          52 -1 136 -136 234 -216 -21 471 234 3 -20 73 156 hstemhm
          36 184 345 166 -166 184 hintmask 0101011010000000
          426 757 -105 callsubr
          -330 -257 rmoveto
          -259 529 65 -116 vvcurveto
          -35 -26 -21 -60 vhcurveto
          -171 3 rlineto
          -50 -38 16 34 -16 hvcurveto
          33 -16 -22 -63 callgsubr
          -107 135 -73 126 hvcurveto
          hintmask 0011011010000000
          148 -3 rlineto
          240 70 84 120 hvcurveto
          261 -529 -67 116 vvcurveto
          35 26 21 60 vhcurveto
          147 -3 rlineto
          50 38 -16 -34 16 hvcurveto
          -33 16 22 -13 28 hhcurveto
          58 hlineto
          hintmask 1001011100000000
          13 37 9 45 107 -135 73 -126 hvcurveto
          hintmask 1000111100000000
          -124 3 rlineto
          -240 -70 -84 -120 hvcurveto
          endchar
        </CharString>
        <CharString name="T">
          5 29 callgsubr
          274 -48 callsubr
          56 -20 callsubr
          -26 -26 callgsubr
          -46 vlineto
          9 callgsubr
          218 -517 hlineto
          -25 21 -20 25 -70 callgsubr
          517 218 20 callsubr
          endchar
        </CharString>
        <CharString name="Tcaron">
          5 175 -30 84 207 endchar
        </CharString>
        <CharString name="Thorn">
          31 22 callsubr
          70 179 295 -48 callsubr
          350 63 rmoveto
          210 168 65 222 222 -168 65 -210 hvcurveto
          -96 48 hlineto
          26 -21 20 -26 vhcurveto
          -90 hlineto
          -26 -21 -20 -26 hvcurveto
          -670 vlineto
          -25 21 -15 callgsubr
          90 -16 callgsubr
          48 vlineto
          -5 442 rmoveto
          100 hlineto
          121 74 -38 -117 -117 -74 -38 -121 hvcurveto
          -100 hlineto
          endchar
        </CharString>
        <CharString name="U">
          97 1 callsubr
          566 -20 hstem
          60 184 336 -48 callsubr
          373 134 rmoveto
          -89 -40 46 96 hvcurveto
          378 -56 callgsubr
          -91 hlineto
          -26 -21 -20 -26 hvcurveto
          -377 vlineto
          -177 104 -104 204 vhcurveto
          88 hlineto
          204 104 104 177 hvcurveto
          377 -39 callgsubr
          -378 vlineto
          -96 -40 -46 -89 vhcurveto
          endchar
        </CharString>
        <CharString name="Uacute">
          97 1 callsubr
          601 204 hstem
          60 184 336 -48 callsubr
          373 134 rmoveto
          -86 -43 47 95 hvcurveto
          378 vlineto
          13 -5 11 24 callgsubr
          9 callsubr
          -91 hlineto
          -13 -11 -54 callsubr
          -5 -11 -13 vvcurveto
          -377 vlineto
          -89 26 -69 52 -49 vhcurveto
          -49 53 76 -25 101 hhcurveto
          88 hlineto
          101 77 25 49 53 hvcurveto
          51 49 26 69 89 vvcurveto
          377 vlineto
          13 -5 11 -9 9 vhcurveto
          9 -9 -11 9 callsubr
          -91 hlineto
          -13 -10 -54 callsubr
          -5 -11 -13 vvcurveto
          -378 vlineto
          -95 -43 -47 -86 vhcurveto
          84 739 -107 callsubr
        </CharString>
        <CharString name="Ucircumflex">
          97 215 -35 85 195 endchar
        </CharString>
        <CharString name="Udieresis">
          97 1 callsubr
          618 131 hstemhm
          60 184 -31 -23 callgsubr
          -37 184 hintmask 11100100
          373 134 rmoveto
          -86 -43 47 95 hvcurveto
          378 vlineto
          13 -5 11 24 callgsubr
          9 callsubr
          -91 hlineto
          -13 -11 -54 callsubr
          -5 -11 -13 vvcurveto
          -377 vlineto
          -89 26 -69 52 -49 vhcurveto
          -49 53 76 -25 101 hhcurveto
          88 hlineto
          101 77 25 49 53 hvcurveto
          51 49 26 69 89 vvcurveto
          377 vlineto
          13 -5 11 -9 9 vhcurveto
          9 -9 -11 9 callsubr
          -91 hlineto
          -13 -10 -54 callsubr
          -5 -11 -13 vvcurveto
          -378 vlineto
          -95 -43 -47 -86 vhcurveto
          hintmask 11011000
          -238 674 -103 callsubr
          245 -19 -103 callsubr
          endchar
        </CharString>
        <CharString name="Ugrave">
          97 1 callsubr
          601 204 hstem
          60 184 336 -48 callsubr
          373 134 rmoveto
          -86 -43 47 95 hvcurveto
          378 vlineto
          13 -5 11 24 callgsubr
          9 callsubr
          -91 hlineto
          -13 -11 -54 callsubr
          -5 -11 -13 vvcurveto
          -377 vlineto
          -89 26 -69 52 -49 vhcurveto
          -49 53 76 -25 101 hhcurveto
          88 hlineto
          101 77 25 49 53 hvcurveto
          51 49 26 69 89 vvcurveto
          377 vlineto
          13 -5 11 -9 9 vhcurveto
          9 -9 -11 9 callsubr
          -91 hlineto
          -13 -10 -54 callsubr
          -5 -11 -13 vvcurveto
          -378 vlineto
          -95 -43 -47 -86 vhcurveto
          -102 647 -101 callgsubr
          endchar
        </CharString>
        <CharString name="Uring">
          97 1 callsubr
          562 65 130 65 hstem
          60 184 38 84 105 84 25 -48 callsubr
          373 134 rmoveto
          -86 -43 47 95 hvcurveto
          378 vlineto
          13 -5 11 24 callgsubr
          9 callsubr
          -91 hlineto
          -13 -11 -54 callsubr
          -5 -11 -13 vvcurveto
          -377 vlineto
          -89 26 -69 52 -49 vhcurveto
          -49 53 76 -25 101 hhcurveto
          88 hlineto
          101 77 25 49 53 hvcurveto
          51 49 26 69 89 vvcurveto
          377 vlineto
          13 -5 11 -9 9 vhcurveto
          9 -9 -11 9 callsubr
          -91 hlineto
          -13 -10 -54 callsubr
          -5 -11 -13 vvcurveto
          -378 vlineto
          -95 -43 -47 -86 vhcurveto
          -32 757 -12 callgsubr
          -95 callsubr
          endchar
        </CharString>
        <CharString name="V">
          71 -65 callgsubr
          434 hmoveto
          35 21 20 30 14 hvcurveto
          281 609 rlineto
          21 10 -20 20 -22 hhcurveto
          -107 hlineto
          -26 -21 -21 -25 -11 hvcurveto
          -189 -421 -189 421 rlineto
          25 -11 -21 21 -26 hhcurveto
          -107 hlineto
          -22 -20 -20 -21 10 hvcurveto
          281 -609 rlineto
          -30 14 21 -20 35 hhcurveto
          endchar
        </CharString>
        <CharString name="W">
          393 -65 callgsubr
          515 -20 callsubr
          -31 -19 -20 -26 -8 hvcurveto
          -119 -387 -129 387 rlineto
          26 -9 -23 20 -26 hhcurveto
          -107 hlineto
          -22 -18 -19 -22 8 hvcurveto
          218 -609 rlineto
          -31 11 24 -19 35 hhcurveto
          71 hlineto
          35 25 19 31 10 hvcurveto
          119 376 119 -376 rlineto
          -31 10 25 -19 35 hhcurveto
          71 hlineto
          35 24 19 31 11 hvcurveto
          218 609 rlineto
          22 8 -18 19 -22 hhcurveto
          -107 hlineto
          -26 -23 -20 -26 -9 hvcurveto
          -129 -387 -119 387 rlineto
          26 -8 -19 20 -31 hhcurveto
          endchar
        </CharString>
        <CharString name="X">
          -81 callgsubr
        </CharString>
        <CharString name="Y">
          15 -65 callgsubr
          279 -48 callsubr
          279 45 rmoveto
          -25 21 -20 25 -70 callgsubr
          205 vlineto
          261 404 -45 callsubr
          261 -404 rlineto
          endchar
        </CharString>
        <CharString name="Yacute">
          16 21 -21 755 204 hstem
          279 -48 callsubr
          279 45 rmoveto
          -33 callsubr
          11 -4 12 hhcurveto
          92 hlineto
          13 11 18 callsubr
          4 10 13 vvcurveto
          205 vlineto
          261 404 8 12 2 11 -3 9 rlinecurve
          9 -3 -8 5 -13 hhcurveto
          -93 hlineto
          -37 -28 -15 -31 -20 hvcurveto
          -158 -244 -158 244 rlineto
          31 -20 -28 15 -37 hhcurveto
          -93 hlineto
          -12 -8 -5 -9 -3 hvcurveto
          -3 -9 2 -11 7 -12 261 -404 rcurveline
          233 643 -107 callsubr
        </CharString>
        <CharString name="Ydieresis">
          15 169 155 89 200 endchar
        </CharString>
        <CharString name="Z">
          -10 -35 callgsubr
          424 138 hstem
          -72 callgsubr
          endchar
        </CharString>
        <CharString name="Zcaron">
          -10 -35 callgsubr
          424 138 73 156 hstemhm
          hintmask 11000000
          -72 callgsubr
          hintmask 00100000
          -255 73 -105 callsubr
          endchar
        </CharString>
        <CharString name="a">
          -83 callgsubr
          hstemhm
          30 -36 callgsubr
          hintmask 10101110
          278 101 -97 callgsubr
          hintmask 01110110
          -92 callsubr
          hintmask 10101110
          -7 callgsubr
          endchar
        </CharString>
        <CharString name="aacute">
          -83 callgsubr
          40 204 hstemhm
          30 -36 callgsubr
          hintmask 10101111
          -93 callgsubr
          hintmask 01110111
          -77 callgsubr
          237 322 -107 callsubr
        </CharString>
        <CharString name="acircumflex">
          -83 callgsubr
          39 156 hstemhm
          30 -36 callgsubr
          hintmask 10101011
          278 101 -97 callgsubr
          hintmask 01110011
          -92 callsubr
          hintmask 10101011
          -7 callgsubr
          hintmask 00000100
          -29 306 -106 callsubr
          endchar
        </CharString>
        <CharString name="acute">
          -545 755 204 hstem
          172 893 -107 callsubr
        </CharString>
        <CharString name="adieresis">
          -83 callgsubr
          71 131 hstemhm
          15 callsubr
          -51 159 66 159 -109 169 hintmask 1010111001000000
          -93 callgsubr
          hintmask 0111010101000000
          -77 callgsubr
          -80 271 -103 callsubr
          hintmask 1011011010000000
          225 -19 -103 callsubr
          endchar
        </CharString>
        <CharString name="ae">
          293 -5 callgsubr
          -111 170 56 103 -103 116 43 31 callsubr
          619 172 hintmask 10011011
          960 216 rmoveto
          -105 callgsubr
          28 vlineto
          176 -107 95 -178 -75 -73 -23 -39 -47 vhcurveto
          41 -46 -76 21 -73 hhcurveto
          -142 -104 -36 -104 -17 13 -13 17 hvcurveto
          73 hlineto
          25 18 10 16 13 hvcurveto
          hintmask 10010111
          -7 callgsubr
          67 33 -24 -78 hvcurveto
          -162 hlineto
          -131 -100 -57 -113 -113 100 -59 141 139 70 40 34 33 hvcurveto
          -47 49 68 -27 85 hhcurveto
          150 107 36 104 hvcurveto
          hintmask 01101011
          -106 callgsubr
          -73 hlineto
          -25 -18 -10 -16 -13 hvcurveto
          hintmask 10010111
          -21 -17 -37 -12 -42 hhcurveto
          -82 -36 35 80 -7 hvcurveto
          -314 -115 rmoveto
          -52 -27 26 35 33 27 26 47 hvcurveto
          149 hlineto
          -2 1 -2 -2 vvcurveto
          -70 vlineto
          -25 -29 -44 -19 -72 hhcurveto
          427 333 rmoveto
          hintmask 10100111
          74 36 -40 -75 3 hvcurveto
          -226 11 hlineto
          68 7 37 36 69 hhcurveto
          endchar
        </CharString>
        <CharString name="afii10017">
          -61 callgsubr
          hstem
          580 -48 callsubr
          12 45 -98 callgsubr
          endchar
        </CharString>
        <CharString name="afii10018">
          64 0 25 callsubr
          118 -8 callsubr
          323 -48 callsubr
          495 306 rmoveto
          53 29 -28 -56 -56 -29 -28 -53 hvcurveto
          -241 168 hlineto
          138 vmoveto
          118 413 vlineto
          25 20 21 25 -57 callsubr
          -550 hlineto
          -26 -26 callgsubr
          -609 vlineto
          -25 19 -21 callgsubr
          381 hlineto
          150 116 68 154 154 -116 68 -150 hvcurveto
          endchar
        </CharString>
        <CharString name="afii10019">
          -85 callgsubr
        </CharString>
        <CharString name="afii10020">
          -83 29 callgsubr
          70 -48 callsubr
          70 45 rmoveto
          -25 21 -20 25 -70 callgsubr
          517 334 20 callsubr
          -472 hlineto
          -26 -26 callgsubr
          endchar
        </CharString>
        <CharString name="afii10021">
          145 -35 callgsubr
          424 138 hstem
          618 -48 callsubr
          84 138 rmoveto
          -38 -29 callgsubr
          -20 -25 hvcurveto
          -47 -27 callsubr
          710 hlineto
          25 21 20 25 hvcurveto
          610 25 callgsubr
          -264 hlineto
          -142 -137 -36 -156 -38 hvcurveto
          179 -42 rmoveto
          59 14 42 37 62 hhcurveto
          146 -424 -346 hlineto
          endchar
        </CharString>
        <CharString name="afii10022">
          18 -61 callsubr
          hstem
          70 -48 callsubr
          -99 callgsubr
          endchar
        </CharString>
        <CharString name="afii10023">
          18 -61 callsubr
          52 131 hstemhm
          2 callsubr
          -61 -23 callgsubr
          hintmask 11111010
          -99 callgsubr
          hintmask 11110110
          -486 108 rmoveto
          -104 callgsubr
        </CharString>
        <CharString name="afii10024">
          373 21 -21 282 138 281 -20 hstem
          458 -48 callsubr
          596 hmoveto
          25 21 20 25 hvcurveto
          237 22 vlineto
          63 37 -41 -59 37 hvcurveto
          86 -136 rlineto
          -26 16 34 -20 25 hhcurveto
          112 -66 callsubr
          -122 194 -28 43 -50 61 -48 10 rlinecurve
          68 16 33 47 25 45 106 192 rcurveline
          27 15 -5 20 -25 hhcurveto
          -113 hlineto
          -25 -27 -15 -32 -18 hvcurveto
          -76 -135 rlineto
          -70 -39 -41 -29 -57 hhcurveto
          -22 234 hlineto
          26 -16 callsubr
          -92 -29 callgsubr
          -21 -26 hvcurveto
          -234 -22 vlineto
          -57 -41 29 70 -39 hvcurveto
          -76 135 rlineto
          32 -18 -27 15 -25 hhcurveto
          -113 hlineto
          -25 -5 -20 -27 15 hvcurveto
          106 -192 25 -45 33 -47 68 -16 rlinecurve
          -48 -10 -50 -61 -28 -43 -122 -194 rcurveline
          -26 -16 7 -20 26 hhcurveto
          112 hlineto
          25 34 20 26 16 hvcurveto
          86 136 rlineto
          59 37 37 41 63 hhcurveto
          22 -237 hlineto
          30 callgsubr
          endchar
        </CharString>
        <CharString name="afii10025">
          54 4 callsubr
          557 194 hintmask 10101100
          443 566 rmoveto
          76 38 -20 -55 -55 -38 -20 -76 hvcurveto
          -110 hlineto
          -24 -20 -22 -24 hvcurveto
          -40 vlineto
          -26 -49 callsubr
          126 hlineto
          67 39 -18 -57 -57 -39 -18 -67 hvcurveto
          -153 hlineto
          -45 -15 callsubr
          121 hvcurveto
          187 hlineto
          167 -6 callsubr
          -153 vhcurveto
          -150 hlineto
          -121 -58 callsubr
          hintmask 10101100
          44 22 42 16 45 hhcurveto
          endchar
        </CharString>
        <CharString name="afii10026">
          125 -65 callgsubr
          70 178 356 178 vstem
          736 hmoveto
          -73 callsubr
        </CharString>
        <CharString name="afii10027">
          125 21 -21 755 110 -110 170 hstemhm
          70 178 356 178 hintmask 11011000
          426 865 rmoveto
          -34 -20 13 22 -9 hvcurveto
          hintmask 10111000
          -35 callsubr
          hintmask 11011000
          -22 -9 -20 -13 -34 hhcurveto
          310 -865 rmoveto
          -73 callsubr
        </CharString>
        <CharString name="afii10028">
          68 21 -21 282 138 281 -101 callsubr
          endchar
        </CharString>
        <CharString name="afii10029">
          88 29 callgsubr
          561 -48 callsubr
          745 46 rmoveto
          3 callgsubr
          24 -18 22 -23 vhcurveto
          -244 -46 callsubr
          119 -516 hlineto
          -26 -49 callsubr
          93 hlineto
          25 20 15 callgsubr
          endchar
        </CharString>
        <CharString name="afii10030">
          -86 callsubr
        </CharString>
        <CharString name="afii10031">
          -79 callsubr
        </CharString>
        <CharString name="afii10032">
          -31 callgsubr
          hstem
          -1 callsubr
          418 -48 callsubr
          423 583 -94 callsubr
          endchar
        </CharString>
        <CharString name="afii10033">
          138 29 callgsubr
          70 184 357 -48 callsubr
          748 hmoveto
          26 -75 callgsubr
          -25 vhcurveto
          -634 hlineto
          -25 -26 callgsubr
          -608 -37 callgsubr
          92 hlineto
          -56 callsubr
          516 357 -516 -27 callsubr
          endchar
        </CharString>
        <CharString name="afii10034">
          76 21 -21 156 138 268 -8 callsubr
          345 -48 callsubr
          432 562 rmoveto
          96 71 -20 -114 -114 -71 -20 -96 hvcurveto
          -178 268 hlineto
          -139 138 rmoveto
          -25 -20 -44 callsubr
          92 hlineto
          -43 callsubr
          110 234 vlineto
          186 109 84 188 188 -109 84 -186 hvcurveto
          endchar
        </CharString>
        <CharString name="afii10035">
          90 -3 callgsubr
          vstem
          -96 callgsubr
          endchar
        </CharString>
        <CharString name="afii10036">
          5 29 callgsubr
          274 -48 callsubr
          56 -20 callsubr
          -26 -26 callgsubr
          -46 vlineto
          9 callgsubr
          218 -517 hlineto
          -25 21 -20 25 -70 callgsubr
          517 218 20 callsubr
          endchar
        </CharString>
        <CharString name="afii10037">
          52 -35 callgsubr
          127 138 297 -20 hstem
          -82 callsubr
          endchar
        </CharString>
        <CharString name="afii10038">
          225 22 callsubr
          20 184 185 174 185 184 cntrmask 00001110
          563 505 rmoveto
          111 74 -48 -107 -107 -74 -48 -111 hvcurveto
          -132 536 rmoveto
          -26 -21 -20 -26 hvcurveto
          -48 vlineto
          -206 -158 -75 -212 -212 158 -75 206 hvcurveto
          -48 vlineto
          -25 21 -15 callgsubr
          90 -16 callgsubr
          48 vlineto
          206 158 75 212 212 -158 75 -206 hvcurveto
          48 vlineto
          26 -21 20 -26 vhcurveto
          -132 -536 rmoveto
          -111 -74 48 107 107 74 48 111 hvcurveto
          endchar
        </CharString>
        <CharString name="afii10039">
          -81 callgsubr
        </CharString>
        <CharString name="afii10040">
          138 -19 callsubr
          328 -48 callsubr
          819 hmoveto
          25 21 21 25 -57 callsubr
          -53 516 hlineto
          -34 callsubr
          -517 -328 -22 callsubr
          -609 -27 callsubr
          endchar
        </CharString>
        <CharString name="afii10041">
          58 21 -21 234 138 328 -20 hstem
          40 184 307 -48 callsubr
          40 490 rmoveto
          -179 126 -77 176 vhcurveto
          189 -189 hlineto
          -94 callgsubr
          -282 -189 vlineto
          -77 -41 41 77 hvcurveto
          164 -56 callgsubr
          -91 hlineto
          -26 -21 -21 -25 hvcurveto
          endchar
        </CharString>
        <CharString name="afii10042">
          393 -19 callsubr
          214 184 214 184 cntrmask 00111000
          468 138 rmoveto
          -214 517 hlineto
          25 -48 callgsubr
          -92 hlineto
          -25 -21 -44 callsubr
          888 hlineto
          25 21 21 25 hvcurveto
          608 vlineto
          -34 callsubr
          -517 -214 -22 callsubr
          endchar
        </CharString>
        <CharString name="afii10043">
          422 -19 callsubr
          214 184 214 184 cntrmask 00111000
          1103 hmoveto
          25 21 21 25 -57 callsubr
          -53 516 hlineto
          -34 callsubr
          -517 -214 -22 callsubr
          -517 -214 517 25 callgsubr
          -92 hlineto
          -25 -21 -44 callsubr
          endchar
        </CharString>
        <CharString name="afii10044">
          148 8 callgsubr
          100 138 hstem
          174 184 313 -48 callsubr
          589 324 rmoveto
          -12 callsubr
          -231 186 hlineto
          -184 238 rmoveto
          -515 vlineto
          -25 19 -22 25 vhcurveto
          371 -52 callsubr
          -231 192 hlineto
          -60 callgsubr
          -266 -29 callgsubr
          -20 -26 hvcurveto
          -46 -27 callsubr
          endchar
        </CharString>
        <CharString name="afii10045">
          348 8 callgsubr
          238 -10 callgsubr
          283 184 98 186 vstem
          455 324 rmoveto
          -12 callsubr
          -201 -26 callsubr
          341 -52 callsubr
          364 -417 rmoveto
          30 callgsubr
          93 hlineto
          26 -75 callgsubr
          -26 vhcurveto
          -93 -29 callgsubr
          -20 -26 hvcurveto
          endchar
        </CharString>
        <CharString name="afii10046">
          54 8 callgsubr
          238 -10 callgsubr
          323 -48 callsubr
          495 324 rmoveto
          -12 callsubr
          -241 -26 callsubr
          381 -52 callsubr
          endchar
        </CharString>
        <CharString name="afii10047">
          22 callgsubr
          600 187 vstem
          316 704 rmoveto
          -136 -145 -73 -132 -45 37 -9 13 hvcurveto
          58 hlineto
          28 22 13 41 20 hvcurveto
          41 20 40 26 60 hhcurveto
          87 hlineto
          122 51 -38 -111 7 hvcurveto
          -262 -29 callgsubr
          -20 -26 hvcurveto
          -41 -27 callsubr
          262 hlineto
          -112 -5 -53 -38 -122 hhcurveto
          -97 hlineto
          -60 -40 26 41 -20 hvcurveto
          41 -20 -22 -63 callgsubr
          -132 145 -73 136 hvcurveto
          119 hlineto
          239 123 111 243 243 -123 111 -239 hvcurveto
          endchar
        </CharString>
        <CharString name="afii10048">
          387 -15 132 -96 -21 296 139 148 132 hstemhm
          70 186 644 184 hintmask 01111100
          713 715 rmoveto
          -202 -135 -82 -198 -29 hvcurveto
          -91 219 hlineto
          -60 callgsubr
          -93 hlineto
          -26 -18 callgsubr
          26 vhcurveto
          93 hlineto
          25 21 20 25 hvcurveto
          251 88 vlineto
          hintmask 10111100
          -221 19 138 -90 212 hhcurveto
          228 143 105 260 260 -143 105 -228 hvcurveto
          -598 vmoveto
          -128 -59 83 150 150 59 83 128 128 59 -38 callsubr
          -83 -128 hvcurveto
          endchar
        </CharString>
        <CharString name="afii10049">
          68 21 -21 248 142 172 138 hstem
          34 184 323 -48 callsubr
          172 268 rmoveto
          -135 -222 rlineto
          -23 -14 11 -23 21 hhcurveto
          123 hlineto
          31 26 20 25 14 hvcurveto
          117 203 rlineto
          175 -202 hlineto
          -25 20 -21 26 -70 callgsubr
          610 vlineto
          25 -20 20 -24 vhcurveto
          -382 hlineto
          -145 -120 -77 -151 -112 65 -60 73 -32 hvcurveto
          127 122 rmoveto
          -56 -25 29 57 57 25 29 56 hvcurveto
          242 -172 hlineto
          endchar
        </CharString>
        <CharString name="afii10050">
          -83 -6 callgsubr
          -138 244 hstemhm
          2 callsubr
          213 167 hintmask 11011000
          467 -20 callsubr
          -351 hlineto
          -26 -26 callgsubr
          -609 vlineto
          -25 21 -20 25 -70 callgsubr
          517 334 vlineto
          26 20 15 callgsubr
          153 vlineto
          hintmask 10111000
          25 -48 callgsubr
          -75 -29 callgsubr
          -20 -25 hvcurveto
          endchar
        </CharString>
        <CharString name="afii10051">
          40 0 111 -100 -21 353 138 83 136 hstemhm
          104 184 275 184 hintmask 10111100
          747 225 rmoveto
          -65 callsubr
          227 vlineto
          26 callgsubr
          -25 vlineto
          -62 -35 -27 -29 vhcurveto
          -19 -13 7 -18 hhcurveto
          -15 hlineto
          -17 -13 -13 -17 hvcurveto
          -63 vlineto
          -15 13 -12 17 -3 vhcurveto
          hintmask 01111100
          -5 30 50 0 30 hhcurveto
          133 70 70 140 hvcurveto
          endchar
        </CharString>
        <CharString name="afii10052">
          -83 -6 callgsubr
          291 -10 callgsubr
          vstem
          70 45 rmoveto
          -25 21 -20 25 -70 callgsubr
          517 334 20 callsubr
          -472 hlineto
          -26 -26 callgsubr
          424 261 -40 callsubr
        </CharString>
        <CharString name="afii10053">
          22 callgsubr
          30 187 vstem
          392 704 rmoveto
          -239 -123 -111 -243 -243 123 -111 239 hvcurveto
          -45 callgsubr
          262 hlineto
          -56 callsubr
          41 -56 callgsubr
          -262 -41 callgsubr
          endchar
        </CharString>
        <CharString name="afii10054">
          -91 callsubr
        </CharString>
        <CharString name="afii10056">
          -403 21 -21 752 131 hstemhm
          -20 151 -61 184 -61 151 hintmask 11010000
          70 45 rmoveto
          -94 callgsubr
          hintmask 11101000
          -90 154 -21 callsubr
          213 -19 -21 callsubr
          endchar
        </CharString>
        <CharString name="afii10057">
          -175 -32 callsubr
          308 -48 callsubr
          -84 callsubr
          endchar
        </CharString>
        <CharString name="afii10058">
          508 8 callgsubr
          100 138 hstem
          546 184 301 -48 callsubr
          730 462 rmoveto
          192 vlineto
          24 -18 22 -23 vhcurveto
          -229 -46 callsubr
          104 -516 hlineto
          -26 -49 callsubr
          357 -52 callsubr
          -138 vmoveto
          -12 callsubr
          -219 186 hlineto
          endchar
        </CharString>
        <CharString name="afii10059">
          521 0 25 callsubr
          256 -10 callgsubr
          304 184 302 -48 callsubr
          558 45 rmoveto
          30 callgsubr
          358 hlineto
          146 120 80 142 142 -120 80 -146 hvcurveto
          -220 210 hlineto
          -47 callgsubr
          -210 -304 210 -56 callgsubr
          -91 hlineto
          -26 -18 callgsubr
          26 vhcurveto
          91 hlineto
          25 21 20 25 hvcurveto
          261 304 vlineto
          404 hmoveto
          57 25 -35 -49 -49 -25 -35 -57 hvcurveto
          -220 168 hlineto
          endchar
        </CharString>
        <CharString name="afii10060">
          50 21 -21 343 138 83 136 hstem
          104 184 275 -48 callsubr
          288 273 rmoveto
          26 callgsubr
          -179 vlineto
          -26 -49 callsubr
          91 -16 callgsubr
          179 vlineto
          -65 callsubr
          endchar
        </CharString>
        <CharString name="afii10061">
          68 21 -21 282 138 281 -20 290 -101 callsubr
          443 895 -40 callsubr
        </CharString>
        <CharString name="afii10062">
          52 -35 callgsubr
          127 138 332 110 -110 170 hstemhm
          hintmask 11100000
          -82 callsubr
          189 698 rmoveto
          -34 -20 13 22 -9 hvcurveto
          hintmask 11010000
          -35 callsubr
          hintmask 11100000
          -22 -9 -20 -13 -34 hhcurveto
          endchar
        </CharString>
        <CharString name="afii10065">
          -83 callgsubr
          hstemhm
          30 -36 callgsubr
          hintmask 10101110
          278 101 -97 callgsubr
          hintmask 01110110
          -92 callsubr
          hintmask 10101110
          -7 callgsubr
          endchar
        </CharString>
        <CharString name="afii10066">
          -84 -5 callgsubr
          257 111 hstemhm
          30 135 -135 169 250 169 hintmask 11011000
          324 101 3 callsubr
          hintmask 11101000
          -159 284 rmoveto
          116 48 47 137 11 vhcurveto
          205 17 rlineto
          21 2 15 23 20 vvcurveto
          64 vlineto
          17 -15 10 -17 -2 vhcurveto
          -269 -24 rlineto
          -197 -18 -63 -124 -214 vvcurveto
          -70 vlineto
          -182 101 -88 193 193 101 87 153 156 -112 83 -152 -84 -62 -24 -60 -43 vhcurveto
          endchar
        </CharString>
        <CharString name="afii10067">
          -86 0 109 110 107 100 109 hstemhm
          -52 callgsubr
          193 169 -144 169 hintmask 11110100
          403 hmoveto
          128 85 37 113 66 -35 40 -50 25 hvcurveto
          hintmask 11111000
          41 25 19 34 50 vvcurveto
          103 -94 42 -115 vhcurveto
          -292 -57 callgsubr
          301 219 rmoveto
          hintmask 11110100
          36 20 -22 -33 -33 -20 -22 -36 hvcurveto
          -162 110 hlineto
          107 vmoveto
          100 143 vlineto
          hintmask 11111000
          29 21 -21 -29 -29 -21 -21 -29 hvcurveto
          endchar
        </CharString>
        <CharString name="afii10068">
          -232 -8 callgsubr
          -53 callgsubr
          vstem
          455 417 rmoveto
          -105 callgsubr
          58 vlineto
          -106 callgsubr
          -365 hlineto
          -17 -13 -13 -17 hvcurveto
          -475 vlineto
          12 callsubr
          vlineto
          endchar
        </CharString>
        <CharString name="afii10069">
          -25 0 118 299 118 hstem
          473 0 callgsubr
          612 hmoveto
          -105 callgsubr
          475 vlineto
          -106 callgsubr
          -222 hlineto
          -110 -105 -28 -120 -30 hvcurveto
          -67 -269 rlineto
          -38 hlineto
          -17 -13 -13 -17 hvcurveto
          -58 vlineto
          -102 callgsubr
          198 118 rmoveto
          57 227 rlineto
          53 14 32 19 44 hhcurveto
          88 -299 hlineto
          endchar
        </CharString>
        <CharString name="afii10070">
          -97 -75 callsubr
          -33 callgsubr
          hintmask 01111100
          -95 callgsubr
          hintmask 10111100
          -87 callgsubr
          endchar
        </CharString>
        <CharString name="afii10071">
          -97 -75 callsubr
          34 131 hstemhm
          30 171 -88 -23 callgsubr
          -89 172 hintmask 0111110010000000
          -95 callgsubr
          hintmask 1011110010000000
          -87 callgsubr
          hintmask 1011101100000000
          -202 201 rmoveto
          -104 callgsubr
        </CharString>
        <CharString name="afii10072">
          144 21 -21 212 111 212 -20 hstem
          351 0 callgsubr
          490 hmoveto
          -105 callgsubr
          182 vlineto
          41 33 -22 -43 22 hvcurveto
          52 -101 rlineto
          -31 16 27 -15 32 hhcurveto
          92 hlineto
          26 6 19 27 -15 hvcurveto
          -73 134 -24 45 -29 31 -51 12 rlinecurve
          51 12 37 36 16 40 53 133 rcurveline
          27 11 -2 19 -26 hhcurveto
          -92 hlineto
          -31 -28 -17 -29 -11 hvcurveto
          -37 -100 rlineto
          -43 -16 -35 -23 -45 hhcurveto
          182 vlineto
          -107 callgsubr
          -182 vlineto
          -45 -35 23 43 -16 hvcurveto
          -37 100 rlineto
          29 -11 -28 17 -31 hhcurveto
          -92 hlineto
          -26 -2 -19 -27 11 hvcurveto
          53 -133 16 -40 37 -36 51 -12 rlinecurve
          -51 -12 -29 -31 -24 -45 -73 -134 rcurveline
          -27 -15 6 -19 26 hhcurveto
          92 hlineto
          32 27 15 31 16 hvcurveto
          52 101 rlineto
          43 22 33 22 41 hhcurveto
          -182 vlineto
          -102 callgsubr
          endchar
        </CharString>
        <CharString name="afii10073">
          -116 -5 callgsubr
          -111 177 50 111 40 177 -111 111 hstemhm
          402 169 -154 169 hintmask 10110100
          247 101 rmoveto
          -31 -28 11 22 -13 hvcurveto
          hintmask 01110010
          19 -11 -14 14 -27 hhcurveto
          -73 hlineto
          -17 -13 -13 -17 -91 102 -56 127 hvcurveto
          -14 callsubr
          146 82 44 111 68 -35 43 -50 25 hvcurveto
          hintmask 10110100
          51 25 19 38 51 vvcurveto
          101 -91 49 -133 vhcurveto
          -98 hlineto
          -117 -102 -56 -91 -17 13 -13 17 hvcurveto
          73 hlineto
          27 14 14 19 11 hvcurveto
          hintmask 10101100
          22 13 28 11 21 hhcurveto
          90 hlineto
          45 20 -23 -30 -30 -20 -23 -45 hvcurveto
          -112 hlineto
          -17 -13 -13 -17 hvcurveto
          -51 vlineto
          -102 callgsubr
          121 hlineto
          hintmask 10110010
          47 24 -22 -35 -37 -24 -22 -47 hvcurveto
          endchar
        </CharString>
        <CharString name="afii10074">
          -51 -17 callsubr
          60 162 232 162 vstem
          222 184 rmoveto
          321 vlineto
          -106 callgsubr
          -102 -57 callgsubr
          137 hlineto
          20 24 16 19 11 hvcurveto
          172 315 rlineto
          -320 vlineto
          -102 callgsubr
          102 hlineto
          -105 callgsubr
          475 vlineto
          -106 callgsubr
          -137 hlineto
          -20 -24 -15 -20 -11 hvcurveto
          endchar
        </CharString>
        <CharString name="afii10075">
          -51 -24 callsubr
          75 90 -90 155 hstemhm
          60 162 232 162 hintmask 11011100
          201 745 -19 callgsubr
          hintmask 11101100
          23 callsubr
          hintmask 11011100
          15 -6 -12 10 -16 hhcurveto
          -16 -561 rmoveto
          321 vlineto
          -106 callgsubr
          -102 -57 callgsubr
          137 hlineto
          20 24 16 19 11 hvcurveto
          172 315 rlineto
          -320 vlineto
          -102 callgsubr
          102 hlineto
          -105 callgsubr
          475 vlineto
          -106 callgsubr
          -137 hlineto
          -20 -24 -15 -20 -11 hvcurveto
          endchar
        </CharString>
        <CharString name="afii10076">
          -117 -17 callsubr
          60 0 callgsubr
          571 489 rmoveto
          -77 callsubr
          182 vlineto
          17 -13 13 -17 vhcurveto
          -109 hlineto
          -17 -13 -13 -17 hvcurveto
          -475 -99 callsubr
          rrcurveto
          endchar
        </CharString>
        <CharString name="afii10077">
          -62 -8 callgsubr
          hstem
          436 16 callgsubr
          92 -387 hlineto
          -100 callgsubr
          475 vlineto
          -106 callgsubr
          -231 -20 callgsubr
          endchar
        </CharString>
        <CharString name="afii10078">
          115 -17 callsubr
          60 166 390 166 vstem
          445 hmoveto
          21 16 14 20 9 hvcurveto
          125 301 rlineto
          -305 vlineto
          -102 callgsubr
          106 hlineto
          -105 callgsubr
          475 vlineto
          -106 callgsubr
          -168 hlineto
          -20 -15 -15 -21 -9 hvcurveto
          -119 -291 -119 291 rlineto
          21 -9 -15 15 -20 hhcurveto
          -168 -57 callgsubr
          106 hlineto
          -105 callgsubr
          305 vlineto
          125 -301 rlineto
          -20 9 16 -14 21 hhcurveto
          endchar
        </CharString>
        <CharString name="afii10079">
          -55 21 -21 212 118 205 -39 callsubr
          214 0 callgsubr
          229 -28 callgsubr
          -475 vlineto
          -100 callgsubr
          182 214 -182 vlineto
          -76 callsubr
          -175 -214 vlineto
          endchar
        </CharString>
        <CharString name="afii10080">
          -43 callgsubr
          hstem
          15 callsubr
          252 0 callgsubr
          325 101 -97 callsubr
          endchar
        </CharString>
        <CharString name="afii10081">
          -55 -8 callgsubr
          -53 callgsubr
          214 0 callgsubr
          612 505 rmoveto
          -106 callgsubr
          -492 hlineto
          -17 -13 -13 -17 hvcurveto
          -475 vlineto
          12 callsubr
          214 -387 vlineto
          -100 callgsubr
          endchar
        </CharString>
        <CharString name="afii10082">
          -34 callgsubr
          7 callgsubr
          229 174 hintmask 11101100
          345 427 rmoveto
          80 33 -49 -110 -111 -33 -49 -90 -25 -40 7 13 -41 hvcurveto
          255 vlineto
          22 35 45 22 36 hhcurveto
          40 118 rmoveto
          -71 -55 -23 -32 -45 hvcurveto
          15 vlineto
          hintmask 11011100
          -106 callgsubr
          -94 hlineto
          -17 -13 -13 -17 hvcurveto
          -640 vlineto
          -100 callgsubr
          150 vlineto
          -13 41 40 -12 60 hhcurveto
          156 106 94 184 hvcurveto
          hintmask 11101100
          183 -105 94 -142 vhcurveto
          endchar
        </CharString>
        <CharString name="afii10083">
          -82 callgsubr
        </CharString>
        <CharString name="afii10084">
          -166 -8 callgsubr
          hstem
          196 0 callgsubr
          40 535 -85 callsubr
          156 -387 hlineto
          12 callsubr
          156 vlineto
          -105 callgsubr
          58 vlineto
          -106 callgsubr
          endchar
        </CharString>
        <CharString name="afii10085">
          -18 callsubr
          hstem
          -103 callgsubr
          endchar
        </CharString>
        <CharString name="afii10086">
          74 -144 -21 165 107 321 107 165 -20 hstem
          20 169 130 163 130 169 cntrmask 00001110
          482 428 rmoveto
          87 -1 43 -47 -112 vvcurveto
          -112 -43 -48 -87 -1 vhcurveto
          -166 428 rmoveto
          -190 -5 -106 -88 -174 vvcurveto
          -174 106 -89 190 -5 vhcurveto
          -135 vlineto
          -100 callgsubr
          135 vlineto
          190 5 106 89 174 vvcurveto
          174 -106 88 -190 5 vhcurveto
          135 vlineto
          -107 callgsubr
          3 -563 rmoveto
          -87 1 -43 48 112 vvcurveto
          112 43 47 87 1 vhcurveto
          endchar
        </CharString>
        <CharString name="afii10087">
          -80 callgsubr
        </CharString>
        <CharString name="afii10088">
          -33 0 118 417 -39 callsubr
          208 0 callgsubr
          606 -28 callgsubr
          -387 -208 387 vlineto
          17 -13 13 -17 vhcurveto
          -109 -57 callgsubr
          564 hlineto
          -105 callgsubr
          58 vlineto
          -106 callgsubr
          -48 hlineto
          endchar
        </CharString>
        <CharString name="afii10089">
          -107 21 -21 172 118 245 -20 hstem
          15 callsubr
          192 0 callgsubr
          30 361 rmoveto
          -143 80 -46 157 vhcurveto
          124 -142 hlineto
          -76 callsubr
          -215 -124 vlineto
          -37 -31 19 52 hvcurveto
          144 vlineto
          -107 callgsubr
          endchar
        </CharString>
        <CharString name="afii10090">
          206 -5 callsubr
          843 hmoveto
          -74 callgsubr
          -387 -153 387 vlineto
          -107 callgsubr
          -387 -153 387 vlineto
          17 -13 13 -17 vhcurveto
          -109 -57 callgsubr
          endchar
        </CharString>
        <CharString name="afii10091">
          234 -5 callsubr
          921 hmoveto
          -105 callgsubr
          58 vlineto
          -106 callgsubr
          -48 387 hlineto
          -107 callgsubr
          -387 -153 387 vlineto
          -107 callgsubr
          -387 -153 387 vlineto
          17 -13 13 -17 vhcurveto
          -109 -57 callgsubr
          endchar
        </CharString>
        <CharString name="afii10092">
          -25 28 callgsubr
          59 118 hstem
          152 169 187 0 callgsubr
          444 247 6 callgsubr
          -123 136 hlineto
          -311 200 rmoveto
          -102 callgsubr
          112 -38 callgsubr
          -251 hlineto
          -17 -13 -13 -17 hvcurveto
          endchar
        </CharString>
        <CharString name="afii10093">
          134 0 109 140 109 177 -39 callsubr
          165 169 69 0 callgsubr
          229 358 rmoveto
          147 vlineto
          17 -13 13 -17 vhcurveto
          -109 -57 callgsubr
          255 -44 callgsubr
          -15 -109 rmoveto
          40 24 -24 -46 -46 -24 -24 -40 hvcurveto
          -104 140 hlineto
          545 -249 rmoveto
          -74 callgsubr
          -475 vlineto
          -17 13 -13 17 vhcurveto
          endchar
        </CharString>
        <CharString name="afii10094">
          -107 28 callgsubr
          177 -39 callsubr
          197 0 callgsubr
          229 358 rmoveto
          147 vlineto
          17 -13 13 -17 vhcurveto
          -109 -57 callgsubr
          287 -44 callgsubr
          -15 -111 6 callgsubr
          -133 136 hlineto
          endchar
        </CharString>
        <CharString name="afii10095">
          -106 -10 118 -118 189 32 111 34 189 -118 118 hstemhm
          hintmask 10110000
          301 545 rmoveto
          -172 -104 -56 -103 -17 13 -13 17 hvcurveto
          73 hlineto
          25 16 13 19 15 hvcurveto
          hintmask 10101000
          22 18 36 17 51 hhcurveto
          77 40 -33 -72 7 hvcurveto
          -173 hlineto
          -17 -13 -13 -17 hvcurveto
          -51 vlineto
          -102 callgsubr
          173 hlineto
          -71 -8 -40 -32 -81 hhcurveto
          -51 -36 17 22 -18 hvcurveto
          hintmask 01110000
          19 -15 -16 13 -25 hhcurveto
          -73 hlineto
          -17 -13 -13 -17 -103 104 -56 172 193 102 94 183 184 -103 94 -187 hvcurveto
          endchar
        </CharString>
        <CharString name="afii10096">
          164 -5 callgsubr
          -80 -21 212 118 104 111 7 callgsubr
          463 169 hintmask 01101110
          229 -28 callgsubr
          -475 vlineto
          -100 callgsubr
          182 71 vlineto
          hintmask 10110110
          -147 16 108 -75 155 hhcurveto
          173 109 94 184 184 -109 93 -173 -153 -107 -72 -143 -18 hvcurveto
          -72 hlineto
          350 104 rmoveto
          69 44 -48 -118 -118 -44 -49 -69 -69 -44 49 118 118 44 48 69 hvcurveto
          endchar
        </CharString>
        <CharString name="afii10097">
          -95 21 -21 191 111 122 111 hstem
          36 169 198 0 callgsubr
          403 191 rmoveto
          -161 vlineto
          -100 callgsubr
          475 vlineto
          -106 callgsubr
          -288 hlineto
          -129 -89 -43 -129 -87 38 -44 66 -25 hvcurveto
          -98 -164 rlineto
          -23 -14 8 -20 24 hhcurveto
          88 hlineto
          37 25 18 25 14 hvcurveto
          83 148 rlineto
          -38 111 rmoveto
          -40 -24 24 37 37 24 24 40 hvcurveto
          134 -122 hlineto
          endchar
        </CharString>
        <CharString name="afii10098">
          -232 -8 callgsubr
          -118 210 hstemhm
          -52 callgsubr
          107 149 hintmask 11011000
          90 535 rmoveto
          -17 -13 -13 -17 hvcurveto
          -475 vlineto
          12 callsubr
          226 vlineto
          -105 callgsubr
          150 vlineto
          hintmask 10111000
          -106 callgsubr
          -89 hlineto
          -17 -13 -13 -17 hvcurveto
          hintmask 11011000
          -62 vlineto
          endchar
        </CharString>
        <CharString name="afii10099">
          2 -175 116 80 -21 357 118 40 113 72 -20 hstem
          107 -36 callgsubr
          vstem
          500 55 rmoveto
          -88 -35 -26 -30 vhcurveto
          -19 -13 7 -18 hhcurveto
          -15 hlineto
          -17 -13 -13 -17 hvcurveto
          -53 vlineto
          -15 13 -11 17 -4 vhcurveto
          -7 30 50 -3 30 hhcurveto
          119 70 70 160 hvcurveto
          185 vlineto
          166 -92 69 -130 -75 -50 -32 -39 -46 vhcurveto
          111 77 vlineto
          -105 callgsubr
          53 vlineto
          -106 callgsubr
          -77 42 hlineto
          -107 callgsubr
          -42 -67 vlineto
          -66 callgsubr
          67 -485 hlineto
          -100 callgsubr
          257 vlineto
          -55 callsubr
          endchar
        </CharString>
        <CharString name="afii10100">
          -232 -8 callgsubr
          37 234 -53 callgsubr
          vstem
          455 417 rmoveto
          -105 callgsubr
          58 vlineto
          -106 callgsubr
          -365 hlineto
          -17 -13 -13 -17 hvcurveto
          -475 vlineto
          12 callsubr
          vlineto
          177 313 -40 callgsubr
        </CharString>
        <CharString name="afii10101">
          -106 -10 118 -118 189 32 111 105 118 hstemhm
          hintmask 01110000
          320 545 rmoveto
          -187 -103 -94 -184 -183 102 -94 193 172 104 56 103 17 -13 13 -17 hvcurveto
          -73 hlineto
          -25 -16 -13 -19 -15 hvcurveto
          hintmask 10110000
          -22 -18 -36 -17 -51 hhcurveto
          -81 -40 32 71 -8 hvcurveto
          173 hlineto
          -105 callgsubr
          51 vlineto
          -106 callgsubr
          -173 hlineto
          72 7 40 33 77 hhcurveto
          51 36 -17 -22 18 hvcurveto
          -19 15 16 -13 -50 callgsubr
          103 -104 56 -172 hvcurveto
          endchar
        </CharString>
        <CharString name="afii10102">
          -87 callsubr
        </CharString>
        <CharString name="afii10103">
          -434 21 -21 581 129 hstem
          62 0 callgsubr
          201 hmoveto
          -105 callgsubr
          463 vlineto
          -107 callgsubr
          -463 vlineto
          -102 callgsubr
          -32 637 -60 callsubr
        </CharString>
        <CharString name="afii10104">
          -420 21 -21 584 129 -3 -20 hstemhm
          -20 148 -59 169 -59 148 hintmask 11001000
          208 hmoveto
          -105 callgsubr
          463 vlineto
          -107 callgsubr
          -463 vlineto
          -102 callgsubr
          hintmask 11010100
          80 640 24 callsubr
          36 hlineto
          35 21 21 35 hvcurveto
          17 vlineto
          35 -21 21 -35 vhcurveto
          -36 hlineto
          -35 -21 -21 -35 hvcurveto
          -199 -20 24 callsubr
          36 hlineto
          35 21 21 35 hvcurveto
          17 vlineto
          hintmask 10110100
          35 -21 21 -35 vhcurveto
          -36 hlineto
          -35 -21 -21 -35 hvcurveto
          endchar
        </CharString>
        <CharString name="afii10105">
          -426 -175 116 640 129 hstem
          70 0 callgsubr
          239 493 -93 callsubr
        </CharString>
        <CharString name="afii10106">
          234 28 callgsubr
          59 118 hstem
          416 169 187 16 callgsubr
          72 -38 callgsubr
          -211 -20 callgsubr
          527 211 6 callgsubr
          -123 136 hlineto
          endchar
        </CharString>
        <CharString name="afii10107">
          241 0 111 111 118 195 -39 callsubr
          194 169 187 0 callgsubr
          229 -28 callgsubr
          -475 vlineto
          -100 callgsubr
          192 194 -192 vlineto
          -102 callgsubr
          277 hlineto
          129 89 43 127 127 -89 43 -129 hvcurveto
          -138 165 hlineto
          -107 callgsubr
          -165 -194 vlineto
          486 -111 rmoveto
          40 24 -22 -37 -37 -24 -22 -40 hvcurveto
          -123 118 hlineto
          endchar
        </CharString>
        <CharString name="afii10108">
          -89 callgsubr
        </CharString>
        <CharString name="afii10109">
          -117 -24 callsubr
          50 234 -53 callgsubr
          vstem
          571 489 rmoveto
          -77 callsubr
          182 vlineto
          17 -13 13 -17 vhcurveto
          -109 hlineto
          -17 -13 -13 -17 hvcurveto
          -475 -99 callsubr
          rrcurveto
          -49 367 -40 callgsubr
        </CharString>
        <CharString name="afii10110">
          -18 callsubr
          65 90 -90 155 hstemhm
          hintmask 11010000
          -103 callgsubr
          -40 794 -19 callgsubr
          hintmask 11100000
          23 callsubr
          hintmask 11010000
          15 -6 -12 10 -16 hhcurveto
          endchar
        </CharString>
        <CharString name="afii10145">
          138 -159 -21 180 138 562 -10 callgsubr
          96 165 96 184 cntrmask 00011100
          657 -20 callsubr
          -25 -21 -21 -25 hvcurveto
          -516 -357 516 vlineto
          25 -16 callsubr
          -92 hlineto
          -26 -20 -21 -2 callgsubr
          -26 20 -21 callgsubr
          235 -134 hlineto
          -42 callgsubr
          72 -16 callgsubr
          134 234 vlineto
          25 21 15 callgsubr
          3 callgsubr
          25 -21 21 -26 vhcurveto
          endchar
        </CharString>
        <CharString name="afii10193">
          -55 -136 -21 157 118 417 -39 callsubr
          31 152 31 169 cntrmask 00011100
          612 -28 callgsubr
          -387 -214 387 vlineto
          17 -13 13 -17 vhcurveto
          -109 -57 callgsubr
          170 -127 hlineto
          -102 callgsubr
          92 hlineto
          -105 callgsubr
          127 170 vlineto
          -105 callgsubr
          endchar
        </CharString>
        <CharString name="afii61352">
          448 21 -21 235 118 33 91 142 81 10 -20 hstemhm
          70 178 353 176 38 -7 callsubr
          hintmask 1111011110000000
          202 hmoveto
          -56 callsubr
          412 vlineto
          250 -412 rlineto
          -25 15 30 -21 26 hhcurveto
          162 hlineto
          26 20 -70 callsubr
          -20 20 -26 vhcurveto
          -84 -29 callgsubr
          -20 -25 hvcurveto
          -448 vlineto
          -275 447 rlineto
          23 -14 -29 23 -24 hhcurveto
          -144 hlineto
          -25 -20 -21 -25 hvcurveto
          -608 -27 callsubr
          751 353 -85 callsubr
          236 hlineto
          -105 callgsubr
          58 vlineto
          -106 callgsubr
          -62 195 rmoveto
          -45 -22 -26 -34 -34 -22 26 45 45 22 26 34 34 22 -26 -45 vhcurveto
          114 hmoveto
          hintmask 1110111110000000
          -83 callsubr
          endchar
        </CharString>
        <CharString name="agrave">
          -83 callgsubr
          40 204 hstemhm
          30 -36 callgsubr
          hintmask 10101111
          -93 callgsubr
          hintmask 01110111
          -77 callgsubr
          31 230 -101 callgsubr
          endchar
        </CharString>
        <CharString name="ampersand">
          25 -10 118 -87 -21 510 200 -118 118 hstemhm
          30 164 -91 170 hintmask 01010100
          513 51 rmoveto
          -28 30 25 -23 45 hhcurveto
          111 hlineto
          25 13 28 18 -21 hvcurveto
          -125 112 59 84 10 14 -3 17 -15 11 rlinecurve
          -53 36 -12 8 -18 -2 -10 -14 rlinecurve
          -48 -69 -169 147 rlineto
          -48 41 -36 39 50 vvcurveto
          45 34 27 57 59 37 -19 -27 17 vhcurveto
          hintmask 10100100
          -22 14 17 -14 25 hhcurveto
          65 hlineto
          17 13 13 17 114 -105 56 -161 -171 -88 -92 -107 -46 14 -35 30 -33 hvcurveto
          hintmask 10101000
          -76 -35 -41 -67 -88 vvcurveto
          -133 95 -84 177 94 61 25 36 56 vhcurveto
          -199 57 rmoveto
          -92 -28 44 55 38 15 32 34 17 hvcurveto
          174 -157 rlineto
          -20 -30 -32 -9 -41 hhcurveto
          endchar
        </CharString>
        <CharString name="aring">
          -83 callgsubr
          31 65 130 65 hstemhm
          15 callsubr
          3 84 105 84 -52 169 hintmask 0000011011000000
          339 771 -12 callgsubr
          -95 callsubr
          hintmask 1010100100100000
          -157 -509 -97 callgsubr
          hintmask 0111000100100000
          -92 callsubr
          hintmask 1010100100100000
          -7 callgsubr
          endchar
        </CharString>
        <CharString name="asciicircum">
          -195 398 -21 323 -20 hstem
          230 -20 callsubr
          -27 -23 -19 -24 -16 hvcurveto
          -157 -237 rlineto
          -22 -15 12 -21 23 hhcurveto
          77 hlineto
          27 22 17 24 16 hvcurveto
          97 146 97 -146 rlineto
          -24 16 22 -17 27 hhcurveto
          77 hlineto
          23 12 21 22 -15 hvcurveto
          -157 237 rlineto
          24 -16 -23 19 -27 hhcurveto
          endchar
        </CharString>
        <CharString name="asciitilde">
          -133 233 127 -127 164 -151 164 -127 77 hstemhm
          hintmask 01000000
          564 372 rmoveto
          14 -11 11 -14 vhcurveto
          -48 hlineto
          hintmask 00010000
          -52 17 -37 -70 hhcurveto
          hintmask 00100000
          -79 -21 50 -110 hhcurveto
          -90 -56 -50 -89 -14 11 -11 14 hvcurveto
          48 hlineto
          hintmask 00010000
          52 -17 37 70 hhcurveto
          hintmask 10000000
          79 21 -50 110 hhcurveto
          90 56 50 89 hvcurveto
          endchar
        </CharString>
        <CharString name="asterisk">
          -301 341 -21 380 -20 hstem
          160 105 vstem
          190 -20 callsubr
          -17 -13 -10 -17 hvcurveto
          1 -77 -65 40 -16 10 -17 -7 -8 -14 rlinecurve
          -20 -37 -8 -14 4 -19 15 -8 rlinecurve
          70 -37 -70 -37 -15 -8 -4 -19 8 -14 rlinecurve
          20 -37 8 -14 17 -7 16 10 rlinecurve
          65 40 -1 -77 rlineto
          -17 13 -10 17 vhcurveto
          46 hlineto
          17 13 10 17 hvcurveto
          -1 77 65 -40 16 -10 17 7 8 14 rlinecurve
          20 37 8 14 -4 19 -15 8 rlinecurve
          -70 37 70 37 15 8 4 19 -8 14 rlinecurve
          -20 37 -8 14 -17 7 -16 -10 rlinecurve
          -65 -40 1 77 rlineto
          17 -13 10 -17 vhcurveto
          endchar
        </CharString>
        <CharString name="at">
          103 -70 108 -108 123 75 75 -75 101 56 75 30 116 -76 76 96 108 hstemhm
          30 125 67 115 153 117 68 125 hintmask 1010110111110000
          392 203 rmoveto
          -36 -19 17 25 22 19 18 33 hvcurveto
          101 -52 hlineto
          -15 -23 -34 -15 -41 hhcurveto
          33 -165 rmoveto
          -171 -99 116 166 166 98 116 172 151 99 -67 -161 hvcurveto
          hintmask 1001110111110000
          -107 -30 -38 -38 vhcurveto
          131 vlineto
          104 -78 42 -98 -112 -70 -25 -71 -10 callsubr
          50 hlineto
          17 13 6 12 8 hvcurveto
          hintmask 0110101111110000
          13 12 25 9 28 hhcurveto
          46 22 -16 -54 hvcurveto
          -110 hlineto
          -90 -68 -39 -76 -77 68 -40 90 53 37 15 22 31 hvcurveto
          -11 vlineto
          -11 9 -9 12 14 callsubr
          164 67 109 131 241 -155 95 -220 -240 -155 -144 -246 -246 155 -144 240 85 55 9 6 30 hvcurveto
          17 3 13 12 15 vvcurveto
          46 vlineto
          17 -13 15 -17 vhcurveto
          -14 hlineto
          hintmask 1010110111110000
          -39 -4 -15 -113 hhcurveto
          endchar
        </CharString>
        <CharString name="atilde">
          -83 callgsubr
          35 17 callgsubr
          30 -36 callgsubr
          hintmask 1010100011000000
          278 101 -97 callgsubr
          hintmask 0111000011000000
          -92 callsubr
          hintmask 1010100011000000
          -7 callgsubr
          hintmask 0000001000000000
          115 291 rmoveto
          -29 10 -35 -35 hhcurveto
          hintmask 0000000100000000
          -80 callsubr
          hintmask 0000010000000000
          -71 callsubr
        </CharString>
        <CharString name="b">
          -65 -10 118 319 118 155 -39 callsubr
          229 174 vstem
          229 407 rmoveto
          13 41 40 7 25 hhcurveto
          90 33 -49 -111 -110 -33 -49 -93 -41 -39 5 6 -23 hvcurveto
          -169 -74 rmoveto
          -30 52 115 -25 95 hhcurveto
          205 105 94 183 184 -106 94 -156 -60 -40 -12 -13 -41 hvcurveto
          150 vlineto
          -107 callgsubr
          endchar
        </CharString>
        <CharString name="backslash">
          -212 -65 callgsubr
          24 -20 callsubr
          -25 -5 -22 -24 13 hvcurveto
          317 -608 rlineto
          -28 14 31 -18 40 hhcurveto
          82 hlineto
          25 5 22 24 -13 hvcurveto
          -317 608 rlineto
          28 -14 -31 18 -40 hhcurveto
          endchar
        </CharString>
        <CharString name="bar">
          -418 -144 -21 865 -20 hstem
          70 0 callgsubr
          209 -165 rmoveto
          -105 callgsubr
          805 vlineto
          -107 callgsubr
          -805 vlineto
          -102 callgsubr
          endchar
        </CharString>
        <CharString name="braceleft">
          13 callgsubr
          116 157 cntrmask 11100000
          163 305 rmoveto
          63 11 47 47 77 vvcurveto
          95 vlineto
          58 38 34 40 vhcurveto
          20 hlineto
          -105 callgsubr
          53 vlineto
          -106 callgsubr
          -48 hlineto
          -115 -92 -53 -141 hvcurveto
          -121 vlineto
          -35 -26 -26 -30 vhcurveto
          -20 hlineto
          -17 -13 -13 -17 hvcurveto
          -58 vlineto
          -102 callgsubr
          20 hlineto
          30 26 -26 -35 hvcurveto
          -121 vlineto
          -141 92 -53 115 vhcurveto
          48 hlineto
          -105 callgsubr
          53 vlineto
          -106 callgsubr
          -20 hlineto
          -40 -38 34 58 hvcurveto
          95 vlineto
          77 -47 47 -63 11 vhcurveto
          endchar
        </CharString>
        <CharString name="braceright">
          13 callgsubr
          138 157 cntrmask 11100000
          248 305 rmoveto
          -63 -11 -47 -47 -77 vvcurveto
          -95 vlineto
          -58 -38 -34 -40 vhcurveto
          -20 hlineto
          -66 callgsubr
          48 hlineto
          115 92 53 141 hvcurveto
          121 vlineto
          35 26 26 30 vhcurveto
          20 hlineto
          -105 callgsubr
          58 vlineto
          -106 callgsubr
          -20 hlineto
          -30 -26 26 35 hvcurveto
          121 vlineto
          141 -92 53 -115 vhcurveto
          -48 hlineto
          -66 callgsubr
          20 hlineto
          40 38 -34 -58 hvcurveto
          -95 vlineto
          -77 47 -47 63 -11 vhcurveto
          endchar
        </CharString>
        <CharString name="bracketleft">
          27 callsubr
          70 159 vstem
          229 -17 rmoveto
          644 120 vlineto
          -105 callgsubr
          53 vlineto
          -106 callgsubr
          -249 hlineto
          -17 -13 -13 -17 hvcurveto
          -810 vlineto
          -102 callgsubr
          249 hlineto
          -105 callgsubr
          53 vlineto
          -106 callgsubr
          endchar
        </CharString>
        <CharString name="bracketright">
          27 callsubr
          160 159 vstem
          40 -17 rmoveto
          -66 callgsubr
          249 hlineto
          -105 callgsubr
          810 vlineto
          -106 callgsubr
          -249 hlineto
          -66 callgsubr
          120 -644 hlineto
          endchar
        </CharString>
        <CharString name="brokenbar">
          -438 -144 -21 865 -39 callsubr
          vstem
          199 -165 rmoveto
          -105 callgsubr
          340 vlineto
          -107 callgsubr
          -340 vlineto
          -102 callgsubr
          109 465 rmoveto
          -105 callgsubr
          340 vlineto
          -107 callgsubr
          -340 vlineto
          -102 callgsubr
          endchar
        </CharString>
        <CharString name="bullet">
          -327 164 -21 324 -20 hstem
          370 305 rmoveto
          -83 callsubr
          endchar
        </CharString>
        <CharString name="c">
          -82 callgsubr
        </CharString>
        <CharString name="caron">
          -331 767 156 hstem
          226 767 -105 callsubr
          endchar
        </CharString>
        <CharString name="ccaron">
          -106 143 -180 99 207 endchar
        </CharString>
        <CharString name="ccedilla">
          -106 -238 81 51 214 -117 199 155 200 -118 118 hstemhm
          30 174 56 209 -94 94 hintmask 11001110
          332 427 rmoveto
          51 37 -19 -27 17 hvcurveto
          hintmask 11010110
          -22 14 17 -14 -50 callgsubr
          114 -104 56 -172 -184 -106 -94 -184 -157 77 -92 153 -22 hvcurveto
          -82 vlineto
          -12 8 -8 12 vhcurveto
          29 hlineto
          hintmask 10110101
          -41 callsubr
          30 vlineto
          151 8 90 55 106 vvcurveto
          -106 callgsubr
          -73 hlineto
          -25 -17 -14 -22 -14 hvcurveto
          hintmask 11001110
          -51 callgsubr
          hvcurveto
          endchar
        </CharString>
        <CharString name="cedilla">
          -344 412 -21 54 71 184 -20 hstem
          227 91 vstem
          20 465 -89 callsubr
          207 25 rmoveto
          -99 hlineto
          99 105 rlineto
          endchar
        </CharString>
        <CharString name="cent">
          -106 -75 183 319 183 hstem
          30 174 26 0 callgsubr
          369 -75 rmoveto
          -105 callgsubr
          39 vlineto
          127 14 75 55 97 vvcurveto
          -106 callgsubr
          -73 hlineto
          -25 -17 -14 -22 -14 hvcurveto
          -51 callgsubr
          51 37 -19 -27 17 hvcurveto
          -22 14 17 -14 -50 callgsubr
          95 -73 55 -124 15 hvcurveto
          40 vlineto
          -107 callgsubr
          -44 vlineto
          -129 -27 -71 -91 -151 vvcurveto
          -150 70 -90 130 -28 vhcurveto
          -44 vlineto
          -102 callgsubr
          endchar
        </CharString>
        <CharString name="circumflex">
          -331 767 156 hstem
          166 923 -106 callsubr
          endchar
        </CharString>
        <CharString name="colon">
          -455 -5 163 224 163 hstem
          40 192 vstem
          40 -59 callgsubr
          356 -25 callgsubr
        </CharString>
        <CharString name="comma">
          -458 -100 -1 callgsubr
          222 82 -100 callsubr
          endchar
        </CharString>
        <CharString name="copyright">
          123 -70 105 105 76 -76 130 100 130 -77 77 105 105 hstemhm
          30 122 83 113 350 122 hintmask 1100111110000000
          -71 callgsubr
          6 388 rmoveto
          33 24 -12 -18 11 hvcurveto
          hintmask 1011011110000000
          -14 9 11 -9 16 hhcurveto
          47 hlineto
          11 9 8 11 74 -68 37 -111 -119 -69 -61 -120 -118 68 -61 123 112 67 36 74 11 -8 9 -11 hvcurveto
          -48 hlineto
          -16 -11 -9 -15 -9 hvcurveto
          hintmask 1100111110000000
          -17 -11 -24 -13 -33 hhcurveto
          -65 -21 32 71 72 21 32 62 hvcurveto
          endchar
        </CharString>
        <CharString name="currency">
          95 21 -21 256 49 23 47 -47 66 168 138 hstemhm
          84 184 335 184 hintmask 11011110
          476 562 rmoveto
          56 71 -20 -64 -64 -71 -20 -56 hvcurveto
          -208 168 hlineto
          hintmask 11101110
          -184 -187 rmoveto
          -44 hlineto
          -17 -13 -13 -17 hvcurveto
          -17 593 vlineto
          101 17 83 50 103 vvcurveto
          123 -109 79 -146 vhcurveto
          -403 hlineto
          -25 -26 callgsubr
          -74 -349 rmoveto
          -17 vlineto
          -102 callgsubr
          44 -212 hlineto
          -42 callgsubr
          92 hlineto
          -43 callsubr
          210 119 vlineto
          63 36 -41 -39 25 hvcurveto
          83 -130 rlineto
          -26 16 34 -20 25 hhcurveto
          117 -17 callgsubr
          131 -37 58 -37 54 -43 16 rlinecurve
          endchar
        </CharString>
        <CharString name="d">
          -65 10 callsubr
          229 169 hintmask 10111100
          317 108 rmoveto
          -80 -33 49 110 111 33 49 90 25 40 -7 -13 41 hvcurveto
          -255 vlineto
          -22 -35 -45 -22 -36 hhcurveto
          -40 -118 rmoveto
          71 55 23 32 45 hvcurveto
          -15 vlineto
          hintmask 01111100
          -102 callgsubr
          94 hlineto
          -105 callgsubr
          640 vlineto
          -107 callgsubr
          -150 vlineto
          13 -41 -40 12 -60 hhcurveto
          -156 -106 -94 -184 hvcurveto
          hintmask 10111100
          -183 105 -94 142 vhcurveto
          endchar
        </CharString>
        <CharString name="dagger">
          -188 -144 -21 552 118 195 -20 hstem
          185 0 callgsubr
          60 505 -85 callsubr
          125 -522 hlineto
          -100 callgsubr
          522 125 vlineto
          -105 callgsubr
          58 vlineto
          -106 callgsubr
          -125 165 hlineto
          -107 callgsubr
          -165 vlineto
          endchar
        </CharString>
        <CharString name="daggerdbl">
          -188 -144 -21 165 118 299 118 165 -20 hstem
          185 0 callgsubr
          60 535 -85 callsubr
          125 -299 -125 hlineto
          -17 -13 -13 -17 hvcurveto
          -58 vlineto
          -102 callgsubr
          125 -135 hlineto
          -100 callgsubr
          135 125 vlineto
          -105 callgsubr
          58 vlineto
          -106 callgsubr
          -125 299 125 hlineto
          -105 callgsubr
          58 vlineto
          -106 callgsubr
          -125 135 hlineto
          -107 callgsubr
          -135 vlineto
          endchar
        </CharString>
        <CharString name="dcaron">
          33 10 callsubr
          0 229 0 169 0 53 hintmask 10110101
          433 152 rmoveto
          -29 -47 -38 -15 -31 hhcurveto
          -40 -29 13 25 -17 hvcurveto
          -18 25 -9 41 55 vvcurveto
          56 9 41 19 25 vhcurveto
          25 19 31 13 45 hhcurveto
          29 35 -7 -13 42 hvcurveto
          -333 -347 rmoveto
          -47 45 59 -23 73 hhcurveto
          63 57 18 37 51 hvcurveto
          -15 vlineto
          hintmask 01111010
          -9 callgsubr
          640 vlineto
          -92 callgsubr
          -150 vlineto
          17 -53 -47 8 -41 hhcurveto
          -80 -63 -23 -47 -46 hvcurveto
          -49 -49 -24 -69 -90 vvcurveto
          -89 23 -69 47 -49 vhcurveto
          691 585 -79 callgsubr
        </CharString>
        <CharString name="degree">
          -327 386 81 162 81 hstem
          30 104 132 104 vstem
          266 548 rmoveto
          -52 -26 -29 -40 -40 -26 29 52 52 26 29 40 40 26 -29 -52 vhcurveto
          104 hmoveto
          -83 callsubr
          endchar
        </CharString>
        <CharString name="dieresis">
          -323 579 131 hstem
          0 -23 callgsubr
          vstem
          635 vmoveto
          -104 callgsubr
        </CharString>
        <CharString name="divide">
          -109 25 163 60 118 60 163 hstem
          210 192 cntrmask 11100000
          10 callgsubr
          518 hlineto
          -105 callgsubr
          58 vlineto
          -106 callgsubr
          -358 -275 rmoveto
          -102 callsubr
          370 -25 callgsubr
        </CharString>
        <CharString name="dollar">
          52 -58 -21 75 138 -138 234 240 234 -138 138 75 -20 hstemhm
          36 184 92 66 27 66 94 184 hintmask 1101011111000000
          312 749 rmoveto
          -46 vlineto
          -213 -8 -63 -81 -114 vvcurveto
          -134 140 -47 136 -30 vhcurveto
          -155 -4 vlineto
          -50 -38 16 34 -16 hvcurveto
          hintmask 1011011111000000
          33 -16 -22 -63 callgsubr
          -107 135 -73 126 hvcurveto
          21 -45 hlineto
          -102 callgsubr
          36 75 27 -75 36 hlineto
          -105 callgsubr
          46 vlineto
          214 7 64 81 115 vvcurveto
          135 -142 47 -136 30 vhcurveto
          153 vlineto
          41 -3 31 -16 14 -30 rrcurveto
          -33 16 31 callgsubr
          106 -135 73 -125 1 hvcurveto
          45 vlineto
          -106 callgsubr
          -36 -75 -27 75 -36 hlineto
          -17 -13 -13 -17 hvcurveto
          253 -559 rmoveto
          hintmask 1100111111000000
          -35 -26 -21 -60 vhcurveto
          -8 120 hlineto
          56 -15 38 -18 -31 vvcurveto
          -345 320 rmoveto
          35 26 21 60 vhcurveto
          6 -120 hlineto
          -55 15 -37 18 31 vvcurveto
          185 -241 rmoveto
          -135 -27 140 vlineto
          292 vmoveto
          27 -140 hlineto
          -27 5 rlineto
          endchar
        </CharString>
        <CharString name="dotlessi">
          -418 -17 callsubr
          70 0 callgsubr
          209 hmoveto
          -74 callgsubr
          -475 vlineto
          -17 13 -13 17 vhcurveto
          endchar
        </CharString>
        <CharString name="e">
          -97 -75 callsubr
          -33 callgsubr
          hintmask 01111100
          -95 callgsubr
          hintmask 10111100
          -87 callgsubr
          endchar
        </CharString>
        <CharString name="eacute">
          -88 callsubr
          27 404 -107 callsubr
        </CharString>
        <CharString name="ecaron">
          -97 -75 callsubr
          42 156 -33 callgsubr
          hintmask 01110110
          -95 callgsubr
          hintmask 10110110
          -87 callgsubr
          hintmask 00001000
          45 153 -105 callsubr
          endchar
        </CharString>
        <CharString name="ecircumflex">
          -97 -75 callsubr
          42 156 -33 callgsubr
          hintmask 01110110
          -95 callgsubr
          hintmask 10110110
          -87 callgsubr
          hintmask 00001000
          -31 309 -106 callsubr
          endchar
        </CharString>
        <CharString name="edieresis">
          -97 113 20 101 200 endchar
        </CharString>
        <CharString name="egrave">
          -88 callsubr
          -179 312 -101 callgsubr
          endchar
        </CharString>
        <CharString name="eight">
          29 1 callsubr
          154 134 144 19 callsubr
          -156 178 282 180 -156 184 hintmask 11110010
          330 134 rmoveto
          -77 -39 18 59 59 39 18 77 hvcurveto
          96 hlineto
          77 39 -18 -59 -59 -39 -18 -77 hvcurveto
          -24 432 rmoveto
          hintmask 11101100
          77 39 -18 -54 -54 -39 -18 -77 hvcurveto
          -50 hlineto
          -77 -39 18 54 54 39 18 77 hvcurveto
          -20 138 rmoveto
          -145 -129 -54 -149 -50 17 -39 49 -40 hvcurveto
          hintmask 11110010
          -66 -35 -28 -61 -66 vvcurveto
          -143 122 -71 157 vhcurveto
          138 hlineto
          157 122 71 143 66 -28 61 -66 35 hvcurveto
          hintmask 11110100
          49 40 17 39 50 vvcurveto
          149 -129 54 -145 vhcurveto
          endchar
        </CharString>
        <CharString name="ellipsis">
          15 -5 163 hstem
          40 192 43 192 43 192 cntrmask 01110000
          40 -59 callgsubr
          235 -31 rmoveto
          -102 callsubr
          235 -31 rmoveto
          -22 callgsubr
        </CharString>
        <CharString name="emdash">
          -113 248 118 hstem
          10 callgsubr
          514 14 callgsubr
        </CharString>
        <CharString name="endash">
          -354 231 134 hstem
          50 365 rmoveto
          -17 -13 -13 -17 hvcurveto
          -74 vlineto
          -102 callgsubr
          273 hlineto
          -105 callgsubr
          74 vlineto
          -106 callgsubr
          endchar
        </CharString>
        <CharString name="equal">
          -239 143 118 88 118 hstem
          60 467 -85 callsubr
          368 hlineto
          -105 callgsubr
          58 vlineto
          -106 callgsubr
          -368 -206 -85 callsubr
          368 14 callgsubr
        </CharString>
        <CharString name="eth">
          -79 -5 callgsubr
          257 111 hstem
          15 callsubr
          250 0 callgsubr
          227 566 rmoveto
          -9 -15 4 -18 15 -9 23 -15 rcurveline
          15 -9 18 5 9 14 44 71 rcurveline
          76 -45 43 -68 8 -82 rrcurveto
          45 -33 -62 29 -94 hhcurveto
          -142 -112 -83 -156 -153 101 -87 193 193 101 128 162 hvcurveto
          20 vlineto
          177 -78 129 -142 67 vhcurveto
          32 52 9 14 -4 18 -15 9 rlinecurve
          -24 15 -14 9 -18 -4 -9 -14 rlinecurve
          -42 -68 -42 11 -46 7 -50 3 rlinecurve
          -15 2 -10 -4 -3 -11 -7 -41 rcurveline
          -3 -12 -4 -13 20 -2 40 -3 37 -7 33 -9 rrcurveto
          61 -524 3 callsubr
          endchar
        </CharString>
        <CharString name="exclam">
          -408 -5 163 542 -20 hstem
          68 183 vstem
          64 -59 callgsubr
          134 116 rmoveto
          25 20 20 25 1 hvcurveto
          14 401 rlineto
          26 1 -22 20 -25 hhcurveto
          -105 hlineto
          -25 -22 -20 -26 1 hvcurveto
          14 -401 rlineto
          -25 1 20 -20 25 hhcurveto
          endchar
        </CharString>
        <CharString name="exclamdown">
          -408 -165 20 522 163 hstem
          68 183 vstem
          64 443 rmoveto
          -102 callsubr
          57 -147 rmoveto
          -25 -20 -20 -25 -1 hvcurveto
          -14 -401 rlineto
          -26 -1 22 -20 25 hhcurveto
          105 hlineto
          25 22 20 26 -1 hvcurveto
          -14 401 rlineto
          25 -1 -20 20 -25 hhcurveto
          endchar
        </CharString>
        <CharString name="f">
          -247 21 -21 334 118 142 116 -53 callgsubr
          vstem
          60 30 rmoveto
          -100 callgsubr
          304 177 vlineto
          -105 callgsubr
          58 vlineto
          -106 callgsubr
          -177 8 hlineto
          108 25 26 131 vhcurveto
          26 19 -8 22 hhcurveto
          18 hlineto
          -105 callgsubr
          54 vlineto
          15 -13 12 -17 3 vhcurveto
          6 -30 -55 4 -45 hhcurveto
          -210 -70 -70 -180 hvcurveto
          endchar
        </CharString>
        <CharString name="five">
          -2 -4 25 callsubr
          122 138 hstemhm
          65 184 262 184 vstemhm
          412 -4 rmoveto
          177 106 58 164 164 -106 58 -177 hvcurveto
          -163 122 365 hlineto
          -47 callsubr
          -503 hlineto
          -26 -26 callgsubr
          -307 vlineto
          30 callgsubr
          284 hlineto
          77 39 -21 -63 -63 -39 -21 -77 hvcurveto
          -77 hlineto
          -50 -39 16 27 -15 hvcurveto
          hintmask 11111000
          33 -18 -20 -63 callgsubr
          -99 115 -74 146 hvcurveto
          endchar
        </CharString>
        <CharString name="florin">
          -134 -175 116 393 118 142 116 hstem
          311 334 rmoveto
          177 hlineto
          17 16 13 17 3 hvcurveto
          10 58 rlineto
          17 3 -11 13 -17 hhcurveto
          -177 hlineto
          2 8 rlineto
          108 19 29 26 131 26 18 -8 22 hhcurveto
          18 hlineto
          17 15 13 17 3 hvcurveto
          10 54 2 15 -11 12 -16 3 rlinecurve
          6 -29 -54 4 -45 hhcurveto
          -210 -83 -70 -180 -31 hvcurveto
          -72 -405 rlineto
          -88 -15 -40 -26 -29 -19 -12 7 -18 hhcurveto
          -15 hlineto
          -17 -15 -13 -17 -3 hvcurveto
          -9 -53 -3 -15 11 -11 16 -4 rlinecurve
          -7 29 50 -3 29 hhcurveto
          119 82 70 160 28 hvcurveto
          endchar
        </CharString>
        <CharString name="four">
          23 21 -21 123 138 439 -20 hstem
          455 -48 callsubr
          10 169 rmoveto
          -25 21 -15 callgsubr
          398 -78 hlineto
          30 callgsubr
          91 -16 callgsubr
          77 54 vlineto
          -11 callgsubr
          46 vlineto
          26 -21 20 -26 vhcurveto
          -54 393 hlineto
          26 -21 20 -26 vhcurveto
          -153 hlineto
          -33 -24 -9 -21 -19 hvcurveto
          -323 -367 rlineto
          -19 -21 -11 -22 -33 vvcurveto
          445 34 rmoveto
          -249 hlineto
          249 283 rlineto
          endchar
        </CharString>
        <CharString name="g">
          -75 -175 111 -111 170 46 118 268 118 hstemhm
          30 174 219 169 hintmask 10111100
          30 291 rmoveto
          -156 101 -94 146 63 44 10 10 39 vhcurveto
          -23 vlineto
          -78 -33 -24 -77 -51 -37 12 21 -17 vhcurveto
          hintmask 01111100
          -54 callgsubr
          104 -36 172 154 113 60 153 hvcurveto
          452 vlineto
          30 -52 -115 25 -95 hhcurveto
          -195 -105 -94 -160 hvcurveto
          174 hmoveto
          87 33 49 83 41 39 -5 -6 23 vhcurveto
          -242 vlineto
          -10 -39 -39 -5 -28 hhcurveto
          -80 -33 49 83 hvcurveto
          endchar
        </CharString>
        <CharString name="germandbls">
          56 -5 callgsubr
          -111 170 -139 -21 568 132 hstemhm
          70 169 155 184 -110 110 -110 184 -68 169 hintmask 0011101010000000
          193 hmoveto
          -43 callsubr
          432 vlineto
          55 37 35 51 vhcurveto
          53 hlineto
          51 37 -35 -45 hvcurveto
          hintmask 1001110010000000
          -52 -74 -6 -75 -101 190 -28 -78 vvcurveto
          -28 -28 -19 -54 -28 -32 12 21 -17 vhcurveto
          hintmask 0101110010000000
          -54 callgsubr
          94 -36 154 136 103 45 113 122 -176 55 1 51 hvcurveto
          hintmask 0011100100000000
          1 53 73 9 73 vvcurveto
          135 -129 54 -145 vhcurveto
          -50 hlineto
          -145 -113 -54 -165 hvcurveto
          -435 -37 callgsubr
          endchar
        </CharString>
        <CharString name="grave">
          -452 441 -21 280 -20 hstem
          109 476 rmoveto
          -28 15 25 -28 37 hhcurveto
          19 hlineto
          42 17 23 43 -14 hvcurveto
          -51 158 rlineto
          30 -10 -32 26 -32 hhcurveto
          -40 hlineto
          -52 -28 -31 -45 24 hvcurveto
          endchar
        </CharString>
        <CharString name="greater">
          -327 -68 callsubr
        </CharString>
        <CharString name="guillemotleft">
          -229 88 -21 414 -20 hstem
          20 262 -62 callsubr
          220 -24 -62 callsubr
          endchar
        </CharString>
        <CharString name="guillemotright">
          -229 88 -21 414 -20 hstem
          478 286 -62 callgsubr
          -220 24 -62 callgsubr
          endchar
        </CharString>
        <CharString name="guilsinglleft">
          -307 30 -67 callsubr
        </CharString>
        <CharString name="guilsinglright">
          -307 -68 callsubr
        </CharString>
        <CharString name="h">
          -45 21 8 callsubr
          155 -20 hstem
          60 -36 callgsubr
          vstem
          453 30 rmoveto
          -100 callgsubr
          280 vlineto
          166 -92 69 -130 -75 -50 -32 -39 -46 vhcurveto
          196 vlineto
          -107 callgsubr
          -640 vlineto
          -100 callgsubr
          327 vlineto
          -55 callsubr
          endchar
        </CharString>
        <CharString name="hbar">
          -89 callgsubr
        </CharString>
        <CharString name="hyphen">
          -259 248 118 hstem
          10 callgsubr
          368 14 callgsubr
        </CharString>
        <CharString name="i">
          -434 21 -21 581 129 hstem
          62 0 callgsubr
          201 hmoveto
          -105 callgsubr
          463 vlineto
          -107 callgsubr
          -463 vlineto
          -102 callgsubr
          -32 637 -60 callsubr
        </CharString>
        <CharString name="iacute">
          -436 21 -21 585 204 -53 callgsubr
          vstem
          199 hmoveto
          -55 callgsubr
          463 vlineto
          -92 callgsubr
          -463 18 callgsubr
          181 723 -107 callsubr
        </CharString>
        <CharString name="icircumflex">
          -412 21 -21 523 -20 84 156 hstemhm
          73 169 hintmask 11010000
          212 hmoveto
          -105 callgsubr
          463 vlineto
          -107 callgsubr
          -463 vlineto
          -102 callgsubr
          hintmask 00100000
          24 743 -106 callsubr
          endchar
        </CharString>
        <CharString name="idieresis">
          -403 21 -21 523 -20 76 131 hstemhm
          -40 159 -42 169 -41 159 hintmask 11001000
          216 hmoveto
          -105 callgsubr
          463 vlineto
          -107 callgsubr
          -463 vlineto
          -102 callgsubr
          hintmask 00110100
          -147 635 rmoveto
          -104 callgsubr
        </CharString>
        <CharString name="igrave">
          -436 21 -21 585 204 hstem
          62 0 callgsubr
          201 hmoveto
          -55 callgsubr
          463 vlineto
          -92 callgsubr
          -463 18 callgsubr
          -14 631 -101 callgsubr
          endchar
        </CharString>
        <CharString name="ij">
          -133 -175 116 80 -21 581 129 hstemhm
          62 169 122 169 hintmask 01110000
          201 hmoveto
          -105 callgsubr
          463 vlineto
          -107 callgsubr
          -463 vlineto
          -102 callgsubr
          -32 637 -88 callgsubr
          hintmask 10101000
          462 -161 -93 callsubr
        </CharString>
        <CharString name="itilde">
          -413 21 -21 523 -20 77 17 callgsubr
          72 169 hintmask 11000100
          211 hmoveto
          -105 callgsubr
          463 vlineto
          -107 callgsubr
          -463 vlineto
          -102 callgsubr
          hintmask 00010000
          167 725 -78 callsubr
        </CharString>
        <CharString name="j">
          -426 -175 116 640 129 hstem
          70 0 callgsubr
          239 493 -93 callsubr
        </CharString>
        <CharString name="jcircumflex">
          -409 -175 116 582 -20 74 156 hstemhm
          80 169 hintmask 11010000
          249 493 rmoveto
          -107 callgsubr
          -438 vlineto
          -88 -35 -26 -30 vhcurveto
          -19 -13 7 -18 hhcurveto
          -15 hlineto
          -17 -13 -13 -17 hvcurveto
          -53 vlineto
          -15 13 -11 17 -4 vhcurveto
          -7 30 50 -3 30 hhcurveto
          119 70 70 160 hvcurveto
          hintmask 00100000
          -119 678 -106 callsubr
          endchar
        </CharString>
        <CharString name="k">
          -117 -24 callsubr
          185 -39 callsubr
          vstem
          229 670 rmoveto
          -107 callgsubr
          -640 -99 callsubr
          63 133 rcurveline
          -77 callsubr
          endchar
        </CharString>
        <CharString name="kcedilla">
          -117 -227 237 11 -36 callsubr
          185 -20 hstemhm
          -52 callgsubr
          hintmask 01111000
          229 670 rmoveto
          -107 callgsubr
          -640 -99 callsubr
          63 133 rcurveline
          -77 callsubr
          164 -368 rmoveto
          hintmask 10111000
          33 6 -21 22 -34 hhcurveto
          -39 hlineto
          -27 -20 -28 -28 hvcurveto
          -2 -135 rlineto
          -34 13 -12 27 vhcurveto
          14 hlineto
          26 17 9 27 6 hvcurveto
          endchar
        </CharString>
        <CharString name="kgreenlandic">
          -117 -17 callsubr
          60 0 callgsubr
          571 489 rmoveto
          -77 callsubr
          182 vlineto
          17 -13 13 -17 vhcurveto
          -109 hlineto
          -17 -13 -13 -17 hvcurveto
          -475 -99 callsubr
          rrcurveto
          endchar
        </CharString>
        <CharString name="l">
          -438 -65 callgsubr
          60 0 callgsubr
          199 hmoveto
          -105 callgsubr
          640 vlineto
          -107 callgsubr
          -640 vlineto
          -102 callgsubr
          endchar
        </CharString>
        <CharString name="lacute">
          -438 21 -21 765 204 -53 callgsubr
          vstem
          199 hmoveto
          -55 callgsubr
          640 vlineto
          -92 callgsubr
          -640 18 callgsubr
          185 903 -107 callsubr
        </CharString>
        <CharString name="lcaron">
          -337 -65 callgsubr
          60 169 0 56 vstem
          199 hmoveto
          -55 callgsubr
          640 vlineto
          -92 callgsubr
          -640 18 callgsubr
          331 645 -79 callgsubr
        </CharString>
        <CharString name="ldot">
          -257 21 -21 261 131 308 -39 callsubr
          52 159 vstem
          199 hmoveto
          -105 callgsubr
          640 vlineto
          -107 callgsubr
          -640 vlineto
          -102 callgsubr
          191 317 -103 callsubr
          endchar
        </CharString>
        <CharString name="less">
          -327 10 -67 callsubr
        </CharString>
        <CharString name="logicalnot">
          -162 219 -21 144 118 hstem
          411 134 vstem
          499 198 rmoveto
          26 20 21 26 hvcurveto
          170 25 callgsubr
          -433 -29 callgsubr
          -20 -26 hvcurveto
          -26 vlineto
          -26 -49 callsubr
          345 -97 hlineto
          -26 -53 callsubr
          endchar
        </CharString>
        <CharString name="lslash">
          -348 -65 callgsubr
          100 0 callgsubr
          30 361 4 callgsubr
          -227 vlineto
          -100 callgsubr
          309 vlineto
          80 39 13 callsubr
          -80 -39 rlineto
          193 vlineto
          -107 callgsubr
          -275 vlineto
          endchar
        </CharString>
        <CharString name="m">
          278 16 callsubr
          hstemhm
          60 169 189 169 189 169 cntrmask 00011100
          hintmask 11011100
          418 30 rmoveto
          -100 callgsubr
          280 vlineto
          14 -1 14 -2 14 vhcurveto
          48 35 39 27 33 hhcurveto
          54 31 -34 -83 hvcurveto
          -280 vlineto
          -100 callgsubr
          280 vlineto
          166 -85 69 -122 -69 -61 -36 -58 -56 vhcurveto
          62 -38 -54 32 -80 hhcurveto
          -70 -42 -33 -38 -39 hvcurveto
          31 vlineto
          hintmask 10111100
          17 -13 13 -17 vhcurveto
          -109 -57 callgsubr
          -14 callsubr
          17 13 13 17 hvcurveto
          327 vlineto
          hintmask 11011100
          43 31 31 27 42 hhcurveto
          54 31 -34 -83 hvcurveto
          endchar
        </CharString>
        <CharString name="mu">
          -45 -144 -21 155 -9 callsubr
          -32 callgsubr
          hintmask 11011100
          199 -165 rmoveto
          -105 callgsubr
          160 vlineto
          -25 26 31 -10 44 hhcurveto
          50 30 20 51 43 hvcurveto
          -31 vlineto
          hintmask 10111100
          -76 callsubr
          -307 vlineto
          hintmask 11011100
          -52 -31 -46 -38 -49 hhcurveto
          -50 -48 44 88 hvcurveto
          265 vlineto
          -107 callgsubr
          -640 vlineto
          -102 callgsubr
          endchar
        </CharString>
        <CharString name="multiply">
          -259 322 133 rmoveto
          12 -12 18 0 12 12 41 42 rcurveline
          12 12 0 18 -12 12 -91 90 rcurveline
          91 91 12 12 0 18 -12 12 rlinecurve
          -41 41 -12 12 -18 0 -12 -12 rlinecurve
          -91 -90 -86 86 -12 12 -19 0 -12 -12 rlinecurve
          -41 -41 -12 -12 0 -18 12 -12 rlinecurve
          87 -87 -87 -86 -12 -12 0 -18 12 -12 rlinecurve
          41 -41 12 -12 19 0 12 12 rlinecurve
          86 86 rlineto
          endchar
        </CharString>
        <CharString name="n">
          -45 16 callsubr
          -32 callgsubr
          hintmask 11011000
          453 30 rmoveto
          -100 callgsubr
          280 vlineto
          166 -92 69 -130 -75 -50 -32 -39 -46 vhcurveto
          31 vlineto
          hintmask 10111000
          17 -13 13 -17 vhcurveto
          -109 -57 callgsubr
          -14 callsubr
          17 13 13 17 hvcurveto
          327 vlineto
          hintmask 11011000
          -55 callsubr
          endchar
        </CharString>
        <CharString name="nacute">
          -45 308 -170 110 194 endchar
        </CharString>
        <CharString name="nbspace">
          -377 endchar
        </CharString>
        <CharString name="ncaron">
          -45 16 callsubr
          62 156 -32 callgsubr
          hintmask 11001100
          453 30 rmoveto
          -100 callgsubr
          280 vlineto
          166 -92 69 -130 -75 -50 -32 -39 -46 vhcurveto
          31 vlineto
          hintmask 10101100
          17 -13 13 -17 vhcurveto
          -109 -57 callgsubr
          -14 callsubr
          17 13 13 17 hvcurveto
          327 vlineto
          hintmask 11001100
          -55 callsubr
          hintmask 00010000
          -73 267 -105 callsubr
          endchar
        </CharString>
        <CharString name="nine">
          16 1 callsubr
          -138 224 46 138 162 19 callsubr
          305 184 hintmask 10111100
          519 266 rmoveto
          -18 vlineto
          -93 -39 -21 -75 vhcurveto
          -90 hlineto
          -50 -35 15 25 -15 hvcurveto
          hintmask 01111100
          33 -20 -18 -63 callgsubr
          -97 111 -73 146 hvcurveto
          124 hlineto
          175 106 58 194 hvcurveto
          216 vlineto
          184 -106 56 -177 vhcurveto
          -107 hlineto
          -177 -106 -56 -163 -163 106 -56 177 hvcurveto
          17 138 rmoveto
          -77 -39 18 63 63 39 18 77 hvcurveto
          73 hlineto
          77 39 -18 -84 hvcurveto
          -60 vlineto
          endchar
        </CharString>
        <CharString name="ntilde">
          -45 154 -10 110 196 endchar
        </CharString>
        <CharString name="numbersign">
          110 21 -21 160 118 144 118 160 -20 hstem
          94 540 -85 callsubr
          103 hlineto
          -41 -144 rlineto
          -106 hlineto
          -17 -12 -13 -17 -1 hvcurveto
          -58 vlineto
          -102 callgsubr
          73 -13 callgsubr
          145 -13 callgsubr
          137 hlineto
          17 12 13 17 hvcurveto
          58 vlineto
          -106 callgsubr
          -103 hlineto
          41 144 rlineto
          119 hlineto
          17 12 13 17 1 hvcurveto
          58 vlineto
          17 -1 -12 13 -17 hhcurveto
          -86 -13 callsubr
          -145 -13 callsubr
          127 -115 rmoveto
          151 hlineto
          -42 -150 rlineto
          -151 hlineto
          endchar
        </CharString>
        <CharString name="o">
          -43 callgsubr
          hstem
          15 callsubr
          252 0 callgsubr
          325 101 -97 callsubr
          endchar
        </CharString>
        <CharString name="oacute">
          -43 callgsubr
          50 204 hstem
          15 callsubr
          252 0 callgsubr
          -68 callgsubr
          -165 465 -107 callsubr
        </CharString>
        <CharString name="ocircumflex">
          -43 callgsubr
          62 156 17 callsubr
          hintmask 00100000
          299 763 -106 callsubr
          hintmask 11011000
          -34 -662 -97 callsubr
          endchar
        </CharString>
        <CharString name="odieresis">
          -43 callgsubr
          56 131 hstemhm
          15 callsubr
          -68 -23 callgsubr
          -84 169 hintmask 11110010
          -68 callgsubr
          hintmask 11101100
          -489 389 -103 callsubr
          245 -19 -103 callsubr
          endchar
        </CharString>
        <CharString name="oe">
          323 -75 callsubr
          hstemhm
          15 callsubr
          252 170 227 172 hintmask 10111110
          990 216 rmoveto
          -105 callgsubr
          28 vlineto
          176 -107 95 -178 -83 -68 -26 -57 -49 vhcurveto
          57 -50 -70 26 -90 hhcurveto
          -189 -106 -93 -184 -184 106 -94 189 89 71 26 56 50 hvcurveto
          -56 48 68 -26 84 hhcurveto
          160 107 36 104 hvcurveto
          hintmask 01111110
          -106 callgsubr
          -73 hlineto
          -25 -18 -10 -16 -13 hvcurveto
          hintmask 10111110
          -21 -17 -37 -12 -42 hhcurveto
          -82 -36 35 80 -7 hvcurveto
          -297 -115 rmoveto
          -85 -41 49 118 118 41 48 85 85 41 -48 -118 -118 -41 -49 -85 hvcurveto
          410 333 -64 callsubr
          endchar
        </CharString>
        <CharString name="ograve">
          -43 callgsubr
          40 204 17 callsubr
          hintmask 00100000
          259 631 -101 callgsubr
          hintmask 11011000
          119 -622 -97 callsubr
          endchar
        </CharString>
        <CharString name="one">
          -330 -65 callgsubr
          143 -48 callsubr
          208 -20 callsubr
          -25 -28 -6 -17 -19 hvcurveto
          -119 -103 -13 -11 -12 -13 15 -20 rlinecurve
          37 -47 10 -12 20 -5 13 10 rlinecurve
          56 41 rlineto
          -472 vlineto
          30 callgsubr
          91 hlineto
          26 -75 callgsubr
          -26 vhcurveto
          endchar
        </CharString>
        <CharString name="onehalf">
          -47 0 71 122 118 -71 71 389 -20 hstemhm
          103 91 152 101 111 92 hintmask 11011110
          346 51 -63 callsubr
          hintmask 10111110
          -4 callsubr
          236 617 -69 callsubr
          -46 668 -81 callsubr
          endchar
        </CharString>
        <CharString name="onequarter">
          -55 21 -21 54 71 575 -20 hstem
          103 91 312 91 vstem
          582 668 -69 callsubr
          -46 668 -81 callsubr
          126 -626 -89 callsubr
          207 25 rmoveto
          -99 hlineto
          99 105 rlineto
          endchar
        </CharString>
        <CharString name="onesuperior">
          -528 412 -21 309 -20 hstem
          88 91 vstem
          116 700 -81 callsubr
          endchar
        </CharString>
        <CharString name="ordfeminine">
          -370 390 66 -44 -21 121 66 16 108 -71 71 hstemhm
          20 96 129 92 hintmask 01110110
          245 411 rmoveto
          29 callsubr
          12 9 9 11 hvcurveto
          176 vlineto
          64 -48 51 -92 vhcurveto
          -30 hlineto
          -60 -74 -37 -47 -20 16 -4 6 hvcurveto
          30 hlineto
          17 6 10 10 12 hvcurveto
          hintmask 10101110
          9 10 15 8 26 hhcurveto
          29 hlineto
          28 17 -19 -26 hvcurveto
          -8 -95 vlineto
          -67 -63 -20 -74 -74 63 -20 57 hvcurveto
          15 hlineto
          35 35 16 19 20 hvcurveto
          -129 59 rmoveto
          18 11 10 20 vhcurveto
          98 -27 hlineto
          -15 -14 -26 -14 -35 hhcurveto
          -23 hlineto
          -20 -11 10 18 hvcurveto
          endchar
        </CharString>
        <CharString name="ordmasculine">
          -362 389 71 171 71 hstem
          20 91 143 91 vstem
          183 631 rmoveto
          35 36 -23 -63 -63 -36 -22 -35 -36 -36 22 63 63 36 23 36 hvcurveto
          -8 71 rmoveto
          -86 -69 -38 -119 -119 69 -37 86 hvcurveto
          15 hlineto
          86 69 37 119 119 -69 38 -86 hvcurveto
          endchar
        </CharString>
        <CharString name="oslash">
          -65 -5 callgsubr
          -80 -21 434 111 -10 -20 hstemhm
          36 169 252 169 hintmask 10101100
          205 268 rmoveto
          118 41 48 85 24 21 -4 -9 17 vhcurveto
          -186 -198 rlineto
          -1 13 -1 15 17 vvcurveto
          126 -167 rmoveto
          -25 -20 4 8 -17 hvcurveto
          185 199 rlineto
          2 -14 1 -14 -16 vvcurveto
          -118 -41 -49 -85 vhcurveto
          hintmask 10011100
          210 434 rmoveto
          -23 -27 -7 -21 -15 hvcurveto
          hintmask 01101100
          18 -33 -51 20 -61 hhcurveto
          -189 -106 -93 -184 -73 16 -59 32 -45 hvcurveto
          -42 -45 rlineto
          -20 -19 4 -26 32 hhcurveto
          62 hlineto
          23 27 7 21 15 hvcurveto
          hintmask 10011100
          -18 33 51 -20 61 hhcurveto
          189 106 94 184 73 -17 58 -32 44 hvcurveto
          43 46 rlineto
          20 19 -4 26 -32 hhcurveto
          endchar
        </CharString>
        <CharString name="otilde">
          -43 callgsubr
          45 110 -70 70 -70 110 17 callsubr
          hintmask 11000110
          325 101 -97 callsubr
          hintmask 00010000
          102 190 -78 callsubr
        </CharString>
        <CharString name="p">
          -34 callgsubr
          7 callgsubr
          229 174 hintmask 11101100
          345 427 rmoveto
          80 33 -49 -110 -111 -33 -49 -90 -25 -40 7 13 -41 hvcurveto
          255 vlineto
          22 35 45 22 36 hhcurveto
          40 118 rmoveto
          -71 -55 -23 -32 -45 hvcurveto
          15 vlineto
          hintmask 11011100
          -106 callgsubr
          -94 hlineto
          -17 -13 -13 -17 hvcurveto
          -640 vlineto
          -100 callgsubr
          150 vlineto
          -13 41 40 -12 60 hhcurveto
          156 106 94 184 hvcurveto
          hintmask 11101100
          183 -105 94 -142 vhcurveto
          endchar
        </CharString>
        <CharString name="paragraph">
          -25 -144 -21 754 111 hstem
          240 159 50 159 vstem
          652 589 rmoveto
          -105 callgsubr
          51 vlineto
          -106 callgsubr
          -412 hlineto
          -115 -95 -62 -118 -118 95 -64 115 hvcurveto
          -457 -37 callgsubr
          113 754 50 -754 112 -16 callgsubr
          708 vlineto
          endchar
        </CharString>
        <CharString name="parenleft">
          -402 30 152 vstem
          182 305 rmoveto
          110 23 110 94 115 vhcurveto
          12 14 9 12 -9 14 -28 46 rcurveline
          -9 15 -18 5 -13 -9 rrcurveto
          -148 -97 -65 -170 -165 vvcurveto
          -165 65 -170 148 -97 vhcurveto
          13 -9 18 5 9 15 28 46 rcurveline
          9 14 -9 12 -12 14 rrcurveto
          -94 115 -23 110 110 vvcurveto
          endchar
        </CharString>
        <CharString name="parenright">
          -402 143 152 vstem
          143 305 rmoveto
          -110 -23 -110 -94 -115 vhcurveto
          -12 -14 -9 -12 9 -14 28 -46 rcurveline
          9 -15 18 -5 13 9 rrcurveto
          148 97 65 170 165 vvcurveto
          165 -65 170 -148 97 vhcurveto
          -13 9 -18 -5 -9 -15 -28 -46 rcurveline
          -9 -14 9 -12 12 -14 rrcurveto
          94 -115 23 -110 -110 vvcurveto
          endchar
        </CharString>
        <CharString name="percent">
          90 -4 callgsubr
          77 -7 callsubr
          hintmask 0111111110000000
          -46 callgsubr
          -52 -547 rmoveto
          hintmask 1011111110000000
          -90 callgsubr
          -531 395 rmoveto
          -90 callgsubr
          endchar
        </CharString>
        <CharString name="period">
          -455 -5 163 hstem
          40 192 vstem
          40 -59 callgsubr
          endchar
        </CharString>
        <CharString name="periodcentered">
          -335 225 163 hstem
          100 192 vstem
          100 291 rmoveto
          -22 callgsubr
        </CharString>
        <CharString name="perthousand">
          443 -4 callgsubr
          69 -7 callsubr
          21 -7 callsubr
          hintmask 0111111111100000
          -46 callgsubr
          -469 -152 rmoveto
          -90 callgsubr
          295 -395 rmoveto
          hintmask 1011111111100000
          -90 callgsubr
          247 hmoveto
          -90 callgsubr
          endchar
        </CharString>
        <CharString name="plus">
          -259 111 -21 158 26 callsubr
          172 120 rmoveto
          -102 callgsubr
          58 hlineto
          -105 callgsubr
          128 128 vlineto
          -105 callgsubr
          58 vlineto
          -106 callgsubr
          -128 122 hlineto
          -106 callgsubr
          -58 hlineto
          -17 -13 -13 -17 hvcurveto
          -122 -122 vlineto
          -17 -13 -13 -17 hvcurveto
          -58 vlineto
          -102 callgsubr
          122 hlineto
          endchar
        </CharString>
        <CharString name="plusminus">
          -259 84 118 89 26 callsubr
          50 202 -85 callsubr
          368 hlineto
          -105 callgsubr
          58 vlineto
          -106 callgsubr
          -128 89 128 hlineto
          -105 callgsubr
          58 vlineto
          -106 callgsubr
          -128 122 hlineto
          -106 callgsubr
          -58 hlineto
          -17 -13 -13 -17 hvcurveto
          -122 -122 vlineto
          -17 -13 -13 -17 hvcurveto
          -58 vlineto
          -102 callgsubr
          122 -89 hlineto
          endchar
        </CharString>
        <CharString name="q">
          -34 callgsubr
          hstem
          30 174 229 0 callgsubr
          330 427 rmoveto
          41 39 -5 -6 23 hvcurveto
          -288 vlineto
          -13 -41 -40 -7 -25 hhcurveto
          -90 -33 49 111 110 33 49 93 hvcurveto
          10 118 rmoveto
          -205 -105 -94 -183 -184 106 -94 156 60 40 12 13 41 hvcurveto
          -150 vlineto
          -100 callgsubr
          625 vlineto
          30 -52 -115 25 -95 hhcurveto
          endchar
        </CharString>
        <CharString name="question">
          -82 -5 163 302 244 -138 138 hstemhm
          215 170 -170 182 34 184 hintmask 11001100
          205 -59 callgsubr
          150 116 rmoveto
          hintmask 11010100
          -105 callgsubr
          86 230 -16 178 vvcurveto
          167 -128 51 -153 vhcurveto
          -56 hlineto
          -123 -58 callsubr
          hintmask 10110100
          44 22 42 16 47 hhcurveto
          25 hlineto
          76 35 -23 -57 hvcurveto
          -83 -216 12 -177 vvcurveto
          -102 callgsubr
          endchar
        </CharString>
        <CharString name="questiondown">
          -72 -169 138 -138 244 302 163 hstemhm
          40 184 34 182 -170 170 hintmask 01111000
          450 474 rmoveto
          42 -24 24 -42 vhcurveto
          -60 hlineto
          -42 -24 -24 -42 hvcurveto
          -31 vlineto
          -42 24 -24 42 vhcurveto
          60 hlineto
          42 24 24 42 hvcurveto
          -150 -116 rmoveto
          hintmask 01110100
          -17 -13 -13 -17 hvcurveto
          -86 -230 16 -178 vvcurveto
          -167 128 -51 153 vhcurveto
          56 hlineto
          123 145 73 117 45 -37 9 -13 hvcurveto
          -58 hlineto
          -28 -22 -13 -33 -16 hvcurveto
          hintmask 10110100
          -44 -22 -42 -16 -47 hhcurveto
          -25 hlineto
          -76 -35 23 57 hvcurveto
          83 216 -12 177 vvcurveto
          -106 callgsubr
          endchar
        </CharString>
        <CharString name="quotedbl">
          -333 30 callsubr
          63 127 vstem
          260 -20 callsubr
          -69 callgsubr
          -254 hmoveto
          -69 callgsubr
          endchar
        </CharString>
        <CharString name="quotedblbase">
          -248 -100 -1 callgsubr
          222 82 -100 callsubr
          268 147 -100 callsubr
          endchar
        </CharString>
        <CharString name="quotedblleft">
          -248 442 -1 callgsubr
          257 497 -67 callgsubr
          -268 -147 -67 callgsubr
          endchar
        </CharString>
        <CharString name="quotedblright">
          -248 442 -1 callgsubr
          222 624 -100 callsubr
          268 147 -100 callsubr
          endchar
        </CharString>
        <CharString name="quoteleft">
          -458 442 -1 callgsubr
          47 497 -67 callgsubr
          endchar
        </CharString>
        <CharString name="quoteright">
          -458 442 -1 callgsubr
          222 624 -100 callsubr
          endchar
        </CharString>
        <CharString name="quotesinglbase">
          -458 -100 -1 callgsubr
          222 82 -100 callsubr
          endchar
        </CharString>
        <CharString name="quotesingle">
          -523 30 callsubr
          vstem
          70 -20 callsubr
          -69 callgsubr
          endchar
        </CharString>
        <CharString name="r">
          -241 21 -21 414 131 7 callgsubr
          hintmask 10110000
          476 515 rmoveto
          hintmask 11010000
          21 callgsubr
          hintmask 10110000
          17 -13 13 -17 vhcurveto
          -109 -57 callgsubr
          -14 callsubr
          17 13 13 17 hvcurveto
          312 vlineto
          hintmask 11010000
          1 callgsubr
        </CharString>
        <CharString name="racute">
          -241 21 -21 412 133 -10 -20 80 204 hstemhm
          -52 callgsubr
          hintmask 10111000
          476 515 rmoveto
          hintmask 11011000
          20 -10 10 -20 -80 -72 -24 -47 -65 vhcurveto
          31 vlineto
          hintmask 10111000
          -92 callgsubr
          -475 18 callgsubr
          -14 callsubr
          -55 callgsubr
          312 vlineto
          48 40 42 24 44 hhcurveto
          91 -3 rlineto
          -55 callgsubr
          -91 292 -107 callsubr
        </CharString>
        <CharString name="rcaron">
          -241 76 -170 114 207 endchar
        </CharString>
        <CharString name="rcommaaccent">
          -241 -277 237 61 -21 414 131 7 callgsubr
          hintmask 10000000
          208 -95 -29 callsubr
          hintmask 01011000
          302 756 rmoveto
          hintmask 01101000
          21 callgsubr
          hintmask 01011000
          17 -13 13 -17 vhcurveto
          -109 -57 callgsubr
          -14 callsubr
          17 13 13 17 hvcurveto
          312 vlineto
          hintmask 01101000
          1 callgsubr
        </CharString>
        <CharString name="registered">
          123 -70 105 237 71 87 71 104 105 hstem
          30 122 99 96 176 96 79 122 vstem
          -71 callgsubr
          -15 237 rmoveto
          33 19 -21 -20 13 hvcurveto
          43 -67 rlineto
          -14 9 18 -10 13 hhcurveto
          61 hlineto
          14 3 10 14 -8 hvcurveto
          -47 73 -21 32 -15 18 -22 8 rlinecurve
          53 10 43 26 56 vvcurveto
          71 -57 43 -76 vhcurveto
          -211 hlineto
          -13 -11 -10 -13 hvcurveto
          -314 vlineto
          -13 11 -11 13 vhcurveto
          48 hlineto
          14 10 11 13 hvcurveto
          108 vlineto
          109 158 rmoveto
          30 37 -10 -33 -33 -37 -11 -30 hvcurveto
          -109 87 hlineto
          endchar
        </CharString>
        <CharString name="s">
          -87 callsubr
        </CharString>
        <CharString name="scaron">
          -129 101 -180 115 207 endchar
        </CharString>
        <CharString name="section">
          -99 -175 111 -111 170 545 28 callsubr
          40 179 190 169 hintmask 10101100
          50 527 rmoveto
          -48 19 -35 30 -28 vhcurveto
          -38 -30 -21 -43 -56 -227 369 56 -113 vvcurveto
          -48 -28 -19 -79 -38 -37 12 21 -17 vhcurveto
          hintmask 01011100
          -54 callgsubr
          104 -36 159 151 113 45 138 47 -20 36 -29 27 hvcurveto
          37 30 22 43 57 227 -369 -56 113 vvcurveto
          48 28 19 79 38 37 -12 -21 17 vhcurveto
          hintmask 10101100
          -16 13 18 -10 -50 callgsubr
          104 -104 36 -159 -151 -113 -45 -138 hvcurveto
          159 -240 rmoveto
          28 8 18 19 12 vhcurveto
          92 -31 91 -18 -48 vvcurveto
          -28 -8 -19 -20 -11 vhcurveto
          -91 31 -91 18 48 vvcurveto
          endchar
        </CharString>
        <CharString name="semicolon">
          -453 -100 -21 503 163 hstem
          42 192 vstem
          222 82 -100 callsubr
          -122 513 rmoveto
          -22 callgsubr
        </CharString>
        <CharString name="seven">
          -90 29 callgsubr
          149 41 rmoveto
          -19 -10 11 -22 27 hhcurveto
          100 hlineto
          28 23 22 24 13 hvcurveto
          256 474 rlineto
          13 24 17 34 31 vvcurveto
          45 vlineto
          25 -21 21 -26 vhcurveto
          -523 hlineto
          -26 -21 -21 -25 hvcurveto
          -46 vlineto
          -26 21 -20 26 vhcurveto
          374 hlineto
          endchar
        </CharString>
        <CharString name="six">
          16 1 callsubr
          162 138 46 224 -138 138 hstemhm
          40 184 305 184 hintmask 11011100
          224 434 rmoveto
          18 vlineto
          93 39 21 75 vhcurveto
          90 hlineto
          50 35 -15 -25 15 hvcurveto
          hintmask 11101100
          -33 20 18 -51 callsubr
          97 -111 73 -146 hvcurveto
          -124 hlineto
          -175 -106 -58 -194 hvcurveto
          -216 vlineto
          -184 106 -56 177 vhcurveto
          107 hlineto
          177 106 56 163 163 -106 56 -177 hvcurveto
          -17 -138 rmoveto
          77 39 -18 -63 -63 -39 -18 -77 hvcurveto
          -73 hlineto
          -77 -39 18 84 hvcurveto
          60 vlineto
          endchar
        </CharString>
        <CharString name="slash">
          -212 -65 callgsubr
          409 -20 callsubr
          -40 -31 -18 -28 -14 hvcurveto
          -317 -608 rlineto
          -24 -13 5 -22 25 hhcurveto
          82 hlineto
          40 31 18 28 14 hvcurveto
          317 608 rlineto
          24 13 -5 22 -25 hhcurveto
          endchar
        </CharString>
        <CharString name="space">
          -377 endchar
        </CharString>
        <CharString name="sterling">
          -87 0 116 -116 130 184 118 162 116 hstemhm
          120 169 hintmask 10111000
          120 230 rmoveto
          -88 -35 -26 -30 vhcurveto
          -15 hlineto
          -17 -13 -13 -17 hvcurveto
          -56 vlineto
          -15 13 -11 17 -4 vhcurveto
          544 hlineto
          25 21 15 callgsubr
          38 vlineto
          hintmask 01111000
          -60 callgsubr
          -324 hlineto
          0 29 45 65 vvcurveto
          74 147 vlineto
          -105 callgsubr
          58 vlineto
          -106 callgsubr
          -147 28 hlineto
          108 25 26 131 vhcurveto
          26 19 -8 22 hhcurveto
          18 hlineto
          -105 callgsubr
          54 vlineto
          15 -13 12 -17 3 vhcurveto
          6 -30 -55 4 -45 hhcurveto
          -210 -70 -70 -180 hvcurveto
          endchar
        </CharString>
        <CharString name="t">
          -277 -10 122 277 118 193 -39 callsubr
          vstem
          400 hmoveto
          17 3 13 12 15 vvcurveto
          52 vlineto
          -106 callgsubr
          -18 hlineto
          -22 -19 -6 -26 hhcurveto
          -51 -35 36 68 hvcurveto
          179 136 vlineto
          -105 callgsubr
          58 vlineto
          -106 callgsubr
          -136 163 hlineto
          -107 callgsubr
          -460 vlineto
          -150 70 -70 140 45 55 4 6 30 vhcurveto
          endchar
        </CharString>
        <CharString name="tcaron">
          -277 -10 116 283 118 313 -39 callsubr
          vstem
          270 -10 rmoveto
          53 44 3 7 33 hvcurveto
          20 3 10 10 17 vvcurveto
          52 vlineto
          20 -10 10 -20 vhcurveto
          -18 hlineto
          -7 -10 -1 -2 -15 hvcurveto
          -2 -14 -12 -1 -9 hhcurveto
          -57 -29 35 69 hvcurveto
          179 136 vlineto
          -55 callgsubr
          58 vlineto
          20 -10 10 -20 vhcurveto
          -136 163 hlineto
          -92 callgsubr
          -460 vlineto
          -147 70 -73 140 vhcurveto
          161 775 -79 callgsubr
        </CharString>
        <CharString name="thorn">
          -34 callgsubr
          155 -39 callsubr
          229 174 vstem
          229 407 rmoveto
          13 41 40 7 25 hhcurveto
          90 33 -48 -111 -111 -33 -49 -90 -25 -40 7 13 -41 hvcurveto
          542 vmoveto
          -107 callgsubr
          -805 vlineto
          -100 callgsubr
          150 vlineto
          -13 41 40 -12 60 hhcurveto
          156 106 94 184 184 -106 93 -156 -60 -40 -12 -13 -41 hvcurveto
          endchar
        </CharString>
        <CharString name="three">
          -4 4 callsubr
          499 194 hintmask 10101100
          375 566 rmoveto
          86 38 -20 -55 -55 -38 -20 -86 hvcurveto
          -72 hlineto
          -24 -20 -22 -24 hvcurveto
          -40 vlineto
          -26 -49 callsubr
          88 hlineto
          77 39 -18 -57 -57 -39 -18 -77 hvcurveto
          -70 hlineto
          -60 -15 callsubr
          136 hvcurveto
          104 hlineto
          177 -6 callsubr
          -163 vhcurveto
          -67 hlineto
          -136 -58 callsubr
          hintmask 10101100
          44 22 42 16 60 hhcurveto
          endchar
        </CharString>
        <CharString name="threequarters">
          33 21 -21 54 71 264 23 callgsubr
          244 92 258 91 hintmask 1110110110000000
          387 74 -89 callsubr
          -47 383 -42 callsubr
          hintmask 1110101110000000
          -58 callgsubr
          hintmask 1101110110000000
          -14 callgsubr
          330 185 -69 callsubr
          329 93 rmoveto
          -99 hlineto
          99 105 rlineto
          endchar
        </CharString>
        <CharString name="threesuperior">
          -377 389 23 callgsubr
          234 92 hintmask 10110100
          330 483 -42 callsubr
          hintmask 10101100
          -58 callgsubr
          hintmask 01110100
          -14 callgsubr
          endchar
        </CharString>
        <CharString name="tilde">
          -353 600 17 callgsubr
          hintmask 01000000
          299 745 rmoveto
          -29 10 -35 -35 hhcurveto
          hintmask 00100000
          -80 callsubr
          hintmask 10000000
          -71 callsubr
        </CharString>
        <CharString name="trademark">
          79 400 -21 251 70 hstem
          110 101 135 99 232 99 vstem
          17 -20 callsubr
          -10 -7 -7 -11 hvcurveto
          -34 vlineto
          -11 7 -7 10 vhcurveto
          93 -233 hlineto
          -10 8 -8 10 vhcurveto
          65 hlineto
          10 8 8 10 hvcurveto
          233 93 vlineto
          10 8 7 11 hvcurveto
          34 vlineto
          11 -8 7 -10 vhcurveto
          271 -321 rmoveto
          13 9 9 12 6 hvcurveto
          74 180 rlineto
          -183 20 callgsubr
          285 vlineto
          11 -8 7 -10 vhcurveto
          -100 hlineto
          -12 -9 -9 -12 -5 hvcurveto
          -71 -175 -71 175 rlineto
          12 -5 -9 9 -12 hhcurveto
          -100 hlineto
          -10 -8 -7 -11 hvcurveto
          -285 20 callgsubr
          183 vlineto
          74 -180 rlineto
          -12 6 9 -9 13 hhcurveto
          endchar
        </CharString>
        <CharString name="two">
          -25 -35 callgsubr
          322 244 -138 19 callsubr
          274 184 hintmask 11011000
          30 117 rmoveto
          -71 vlineto
          -25 21 -15 callgsubr
          542 -16 callgsubr
          46 vlineto
          26 -21 20 -26 vhcurveto
          -405 hlineto
          112 458 -60 281 vvcurveto
          185 -131 48 -163 vhcurveto
          -66 hlineto
          -136 -58 callsubr
          hintmask 10111000
          44 22 42 16 60 hhcurveto
          35 hlineto
          86 38 -20 -75 hvcurveto
          -136 -458 85 -303 vvcurveto
          endchar
        </CharString>
        <CharString name="twosuperior">
          -383 391 71 122 118 -71 71 hstemhm
          20 101 111 92 hintmask 11011000
          20 442 -63 callsubr
          hintmask 10111000
          -4 callsubr
          endchar
        </CharString>
        <CharString name="u">
          -28 callsubr
          -32 callgsubr
          hintmask 10111000
          229 -28 callgsubr
          -280 vlineto
          -166 92 -69 130 75 50 32 39 46 vhcurveto
          -31 vlineto
          hintmask 01111000
          -76 callsubr
          -327 vlineto
          hintmask 10111000
          -36 -36 -46 -34 -49 hhcurveto
          -55 -38 34 83 hvcurveto
          endchar
        </CharString>
        <CharString name="uacute">
          -84 callgsubr
          236 498 -107 callsubr
        </CharString>
        <CharString name="ucircumflex">
          -45 144 -160 117 195 endchar
        </CharString>
        <CharString name="udieresis">
          -28 callsubr
          100 131 hstemhm
          -52 callgsubr
          -82 -23 callgsubr
          -98 169 hintmask 10111001
          -86 callgsubr
          hintmask 01111001
          -78 callgsubr
          hintmask 10111010
          -24 callgsubr
          hintmask 10110110
          -82 446 -103 callsubr
          245 -19 -103 callsubr
          endchar
        </CharString>
        <CharString name="ugrave">
          -84 callgsubr
          40 406 -101 callgsubr
          endchar
        </CharString>
        <CharString name="underscore">
          -327 -118 118 hstem
          30 hmoveto
          -17 -13 -13 -17 hvcurveto
          -58 vlineto
          -102 callgsubr
          340 14 callgsubr
        </CharString>
        <CharString name="uni00AD">
          -259 248 118 hstem
          10 callgsubr
          368 14 callgsubr
        </CharString>
        <CharString name="uni0406">
          -403 -65 callgsubr
          70 -48 callsubr
          70 45 rmoveto
          -94 callgsubr
          endchar
        </CharString>
        <CharString name="uring">
          -28 callsubr
          32 65 130 65 hstemhm
          -52 callgsubr
          -16 84 105 84 -33 169 hintmask 1011110010000000
          -86 callgsubr
          hintmask 0111110010000000
          -78 callgsubr
          hintmask 1011110100000000
          -24 callgsubr
          121 517 -12 callgsubr
          hvcurveto
          hintmask 1011101100000000
          -95 callsubr
          endchar
        </CharString>
        <CharString name="v">
          -71 -17 callsubr
          364 hmoveto
          27 27 17 26 12 hvcurveto
          211 449 rlineto
          24 11 -8 19 -23 hhcurveto
          -94 hlineto
          -27 -28 -17 -26 -11 hvcurveto
          -133 -304 -133 304 rlineto
          26 -11 -28 17 -27 hhcurveto
          -94 hlineto
          -23 -8 -19 -24 11 hvcurveto
          211 -449 rlineto
          -26 12 27 -17 27 hhcurveto
          endchar
        </CharString>
        <CharString name="w">
          171 -17 callsubr
          406 535 rmoveto
          -28 -20 -17 -26 -8 hvcurveto
          -79 -263 -80 263 rlineto
          28 -9 -28 15 -29 hhcurveto
          -91 hlineto
          -23 -5 -18 -25 8 hvcurveto
          148 -449 rlineto
          -27 9 27 -16 26 hhcurveto
          69 hlineto
          25 28 16 27 9 hvcurveto
          94 291 94 -291 rlineto
          -27 9 28 -16 25 hhcurveto
          69 hlineto
          26 27 16 27 9 hvcurveto
          148 449 rlineto
          25 8 -5 18 -23 hhcurveto
          -91 hlineto
          -29 -28 -15 -28 -9 hvcurveto
          -80 -263 -79 263 rlineto
          26 -8 -20 17 -28 hhcurveto
          endchar
        </CharString>
        <CharString name="x">
          -80 callgsubr
        </CharString>
        <CharString name="y">
          -18 callsubr
          hstem
          -103 callgsubr
          endchar
        </CharString>
        <CharString name="yacute">
          -18 callsubr
          80 204 hstem
          324 42 rmoveto
          -67 -18 -32 -34 -46 hhcurveto
          -8 -11 1 3 -14 hvcurveto
          3 -13 -11 1 -7 hhcurveto
          -18 hlineto
          -20 -10 -10 -20 hvcurveto
          -54 vlineto
          -17 10 -10 20 -3 vhcurveto
          -7 35 43 -3 49 hhcurveto
          57 45 18 35 34 hvcurveto
          33 34 28 57 23 81 128 456 rcurveline
          2 7 -1 7 -5 6 rrcurveto
          6 -5 -6 3 -8 hhcurveto
          -103 hlineto
          -22 -14 -11 -22 -5 hvcurveto
          -97 -342 rlineto
          -43 -36 45 90 -28 hvcurveto
          -64 207 rlineto
          22 -7 -15 11 -22 hhcurveto
          -102 hlineto
          -8 -7 -3 -6 -5 hvcurveto
          -5 -6 -1 -7 3 -7 73 -236 rcurveline
          27 -85 33 -61 39 -35 rrcurveto
          -31 35 45 -16 55 hhcurveto
          129 691 -107 callsubr
        </CharString>
        <CharString name="ydieresis">
          -18 callsubr
          64 131 hstemhm
          124 -23 callgsubr
          hintmask 11000000
          -103 callgsubr
          hintmask 00111000
          -104 694 rmoveto
          -104 callgsubr
        </CharString>
        <CharString name="yen">
          15 21 -21 197 53 27 53 370 -20 hstem
          279 -48 callsubr
          279 45 rmoveto
          -25 21 -20 25 -70 callgsubr
          152 113 vlineto
          -105 callgsubr
          23 -143 vlineto
          17 27 rlineto
          126 23 hlineto
          -106 callgsubr
          -62 hlineto
          210 324 -45 callsubr
          209 -324 rlineto
          -61 hlineto
          -17 -13 -13 -17 hvcurveto
          -23 125 vlineto
          18 -27 rlineto
          -143 -23 hlineto
          -102 callgsubr
          113 hlineto
          endchar
        </CharString>
        <CharString name="z">
          -168 0 118 299 118 hstem
          495 387 rmoveto
          21 21 14 17 33 vvcurveto
          47 vlineto
          -106 callgsubr
          -445 hlineto
          -17 -13 -13 -17 hvcurveto
          -58 vlineto
          -102 callgsubr
          262 hlineto
          -257 -269 rlineto
          -21 -21 -14 -17 -33 vvcurveto
          -47 vlineto
          -102 callgsubr
          449 hlineto
          -105 callgsubr
          58 vlineto
          -106 callgsubr
          -275 hlineto
          endchar
        </CharString>
        <CharString name="zcaron">
          -168 83 -170 122 207 endchar
        </CharString>
        <CharString name="zero">
          69 -3 callgsubr
          368 -48 callsubr
          398 566 rmoveto
          103 81 -51 -165 -165 -81 -51 -103 -103 -81 51 165 165 81 51 103 hvcurveto
          -17 138 rmoveto
          -194 -157 -85 -269 -269 157 -85 194 hvcurveto
          34 hlineto
          194 157 85 269 269 -157 85 -194 hvcurveto
          endchar
        </CharString>
      <CharString index="0">
        -106 callgsubr
        -74 callsubr
        -17 -13 -13 -17 hvcurveto
        return
      </CharString>
      <CharString index="1">
        17 -13 13 -17 vhcurveto
        return
      </CharString>
      <CharString index="2">
        17 13 13 17 hvcurveto
        return
      </CharString>
      <CharString index="3">
        -104 callsubr
        245 -19 -91 callgsubr
        endchar
      </CharString>
      <CharString index="4">
        228 -59 rmoveto
        -23 -19 8 -22 hhcurveto
        -18 hlineto
        -17 -13 -13 -17 hvcurveto
        -54 vlineto
        -15 13 -12 17 -3 vhcurveto
        -6 32 55 -4 40 hhcurveto
        115 60 66 159 45 hvcurveto
        128 456 rlineto
        15 4 -11 14 -16 hhcurveto
        -103 hlineto
        -18 -18 -14 -19 -5 hvcurveto
        -97 -342 rlineto
        -43 -31 30 105 -33 hvcurveto
        -64 207 rlineto
        19 -6 -20 14 -18 hhcurveto
        -102 hlineto
        -16 -12 -14 -15 5 hvcurveto
        73 -236 rlineto
        -180 56 75 -48 103 hhcurveto
        -67 -18 -31 -34 -47 hhcurveto
        return
      </CharString>
      <CharString index="5">
        -17 13 -13 17 vhcurveto
        return
      </CharString>
      <CharString index="6">
        rmoveto
        -29 17 19 -17 24 hhcurveto
        23 hlineto
        33 9 21 35 -10 hvcurveto
        -24 92 rlineto
        33 -11 -23 23 -30 hhcurveto
        -44 hlineto
        -45 -10 -33 -33 19 hvcurveto
        return
      </CharString>
      <CharString index="7">
        -102 callgsubr
        -14 callsubr
        -105 callgsubr
        return
      </CharString>
      <CharString index="8">
        679 -20 callsubr
        -563 -29 callgsubr
        -20 -25 hvcurveto
        -608 6 callsubr
        561 hlineto
        -43 callsubr
        47 vlineto
        25 -20 -23 callsubr
        -424 12 callgsubr
        hlineto
        -56 callsubr
        46 vlineto
        25 -16 callsubr
        -366 142 425 hlineto
        25 21 20 26 -57 callsubr
        return
      </CharString>
      <CharString index="9">
        rmoveto
        -25 -7 15 -20 26 hhcurveto
        96 hlineto
        26 25 20 26 7 5 callsubr
        -26 20 -20 26 -70 callgsubr
        610 vlineto
        24 -18 21 -24 vhcurveto
        -263 hlineto
        -142 -141 -35 -155 -41 hvcurveto
        177 -46 rmoveto
        60 16 50 38 63 hhcurveto
        139 -255 -311 hlineto
        return
      </CharString>
      <CharString index="10">
        rmoveto
        -52 -27 26 35 33 27 26 47 hvcurveto
        150 -76 hlineto
        -22 -35 -50 -22 -60 hhcurveto
        45 333 rmoveto
        67 33 -24 -78 hvcurveto
        -162 hlineto
        -131 -100 -57 -113 -113 100 -59 131 77 55 23 32 45 hvcurveto
        -15 vlineto
        return
      </CharString>
      <CharString index="11">
        30 350 rmoveto
        -243 123 -111 239 vhcurveto
        119 hlineto
        136 145 73 142 45 -37 9 -13 hvcurveto
        -58 hlineto
        -28 -23 -13 -41 -19 hvcurveto
        -47 -22 -38 -30 -60 hhcurveto
        -97 hlineto
        -144 -39 53 163 163 39 53 144 hvcurveto
        87 hlineto
        60 38 -30 -47 22 hvcurveto
        -41 19 23 -51 callsubr
        142 -27 callgsubr
        -239 -123 -111 -243 hvcurveto
        return
      </CharString>
      <CharString index="12">
        570 216 rmoveto
        -105 callgsubr
        28 vlineto
        176 -107 95 -178 -177 -108 -98 -180 -181 107 -96 178 160 107 36 104 -106 callgsubr
        -73 hlineto
        -25 -18 -10 -16 -13 hvcurveto
        return
      </CharString>
      <CharString index="13">
        30 callgsubr
        91 hlineto
        26 21 21 25 hvcurveto
        608 -39 callgsubr
        return
      </CharString>
      <CharString index="14">
        423 145 rmoveto
        -29 -47 -48 -15 -50 hhcurveto
        -53 -26 20 41 17 6 14 13 11 hvcurveto
        11 14 18 6 23 hhcurveto
        150 hlineto
        -195 180 rmoveto
        22 18 32 11 45 hhcurveto
        35 25 -7 -15 15 hvcurveto
        17 -15 8 -27 -38 vvcurveto
        -162 hlineto
        -68 -55 -14 -29 -42 hvcurveto
        -44 -30 -22 -42 -55 vvcurveto
        -55 22 -42 44 -31 vhcurveto
        -29 42 55 -15 68 hhcurveto
        67 59 18 37 51 hvcurveto
        -15 vlineto
        return
      </CharString>
      <CharString index="15">
        20 -10 10 -20 vhcurveto
        -74 callsubr
        -20 -10 -10 -20 hvcurveto
        return
      </CharString>
      <CharString index="16">
        rmoveto
        -104 callsubr
        return
      </CharString>
      <CharString index="17">
        -45 -22 -26 -34 -34 -22 26 45 45 22 26 34 34 22 -26 -45 vhcurveto
        114 hmoveto
        -83 callsubr
        return
      </CharString>
      <CharString index="18">
        2 21 -21 357 118 40 113 72 -20 hstem
        107 -36 callgsubr
        vstem
        40 628 rmoveto
        -66 callgsubr
        67 -485 hlineto
        -100 callgsubr
        257 vlineto
        -55 callsubr
        -210 vlineto
        -100 callgsubr
        210 vlineto
        166 -92 69 -130 -75 -50 -32 -39 -46 vhcurveto
        111 77 vlineto
        -105 callgsubr
        53 vlineto
        -106 callgsubr
        -77 42 hlineto
        -107 callgsubr
        -42 vlineto
        endchar
      </CharString>
      <CharString index="19">
        24 callsubr
        61 hlineto
        35 21 21 35 hvcurveto
        17 vlineto
        35 -21 21 -35 vhcurveto
        -61 hlineto
        -35 -21 -21 -35 hvcurveto
        return
      </CharString>
      <CharString index="20">
        -21 -17 -37 -12 -42 hhcurveto
        -82 -36 35 80 -7 hvcurveto
        113 218 -64 callsubr
        return
      </CharString>
      <CharString index="21">
        229 505 rmoveto
        -92 callgsubr
        -280 vlineto
        -79 21 -60 41 -41 vhcurveto
        -37 38 53 -18 69 hhcurveto
        58 57 24 47 56 hvcurveto
        -31 vlineto
        return
      </CharString>
      <CharString index="22">
        98 0 132 168 128 140 132 hstemhm
        2 callsubr
        329 184 -156 184 hintmask 11110100
        70 46 rmoveto
        -31 callsubr
        420 hlineto
        137 122 71 139 66 -28 61 -66 35 hvcurveto
        hintmask 11111000
        49 40 17 39 50 vvcurveto
        145 -129 54 -125 vhcurveto
        -397 hlineto
        -26 -20 -21 -25 hvcurveto
        445 -86 rmoveto
        41 27 -25 -45 -45 -27 -25 -41 hvcurveto
        -261 140 hlineto
        279 -268 rmoveto
        hintmask 11110100
        52 26 -34 -50 -50 -26 -34 -52 hvcurveto
        -279 168 hlineto
        endchar
      </CharString>
      <CharString index="23">
        -28 callsubr
        70 204 -32 callgsubr
        hintmask 10111100
        -86 callgsubr
        hintmask 01111100
        -78 callgsubr
        hintmask 10111100
        -24 callgsubr
        return
      </CharString>
      <CharString index="24">
        -75 -5 callgsubr
        -80 -21 221 111 43 170 -111 111 return
      </CharString>
      <CharString index="25">
        -106 -10 118 -118 200 155 200 -118 118 hstemhm
        30 174 hintmask 10011000
        332 427 rmoveto
        51 37 -19 -27 17 hvcurveto
        hintmask 01101000
        -22 14 17 -14 -50 callgsubr
        114 -104 56 -172 -184 -106 -94 -184 -183 105 -94 190 172 104 56 114 17 -13 13 -17 hvcurveto
        -73 hlineto
        -25 -17 -14 -22 -14 hvcurveto
        hintmask 10011000
        -51 callgsubr
        hvcurveto
        endchar
      </CharString>
      <CharString index="26">
        23 -65 callgsubr
        241 654 rmoveto
        24 -19 -26 22 -40 hhcurveto
        -105 hlineto
        -26 -10 -22 -24 19 hvcurveto
        232 -294 -246 -314 rlineto
        -24 -19 10 -22 26 hhcurveto
        104 hlineto
        40 26 22 24 19 hvcurveto
        149 190 149 -190 rlineto
        -24 19 26 -22 40 hhcurveto
        104 hlineto
        26 10 22 24 -19 hvcurveto
        -246 314 232 294 rlineto
        24 19 -10 22 -26 hhcurveto
        -105 hlineto
        -40 -26 -22 -24 -19 hvcurveto
        -134 -170 rlineto
        endchar
      </CharString>
      <CharString index="27">
        -103 -17 callsubr
        231 492 rmoveto
        27 -18 -21 16 -37 hhcurveto
        -106 hlineto
        -24 -4 -24 -19 13 hvcurveto
        159 -224 -170 -225 rlineto
        -18 -14 5 -25 24 hhcurveto
        104 hlineto
        37 20 17 26 19 hvcurveto
        94 127 94 -127 rlineto
        -26 19 20 -17 37 hhcurveto
        104 hlineto
        24 5 25 18 -14 hvcurveto
        -170 225 159 224 rlineto
        19 13 -4 24 -24 hhcurveto
        -106 hlineto
        -37 -21 -16 -27 -18 hvcurveto
        -81 -123 rlineto
        endchar
      </CharString>
      <CharString index="28">
        rmoveto
        33 6 -21 22 -34 hhcurveto
        -39 hlineto
        -27 -20 -28 -28 hvcurveto
        -2 -165 rlineto
        -34 13 -12 27 vhcurveto
        14 hlineto
        26 17 9 27 6 hvcurveto
        endchar
      </CharString>
      <CharString index="29">
        -11 callsubr
        -14 callsubr
        -55 callgsubr
        475 vlineto
        -92 callgsubr
        -327 vlineto
        return
      </CharString>
      <CharString index="30">
        -9 callgsubr
        302 vlineto
        73 -25 54 -49 37 vhcurveto
        33 -45 -61 16 -77 hhcurveto
        -177 -89 -47 -93 -30 callsubr
        hvcurveto
        73 hlineto
        23 19 9 17 14 hvcurveto
        return
      </CharString>
      <CharString index="31">
        -25 callsubr
        -11 -5 -9 -9 hvcurveto
        -9 -9 -4 -11 -13 vvcurveto
        2 callgsubr
        11 callgsubr
        -4 13 hhcurveto
        563 hlineto
        13 10 18 callsubr
        5 11 13 vvcurveto
        46 vlineto
        13 -5 11 24 callgsubr
        9 callsubr
        -425 515 hlineto
        13 -4 11 -9 9 vhcurveto
        9 -9 -11 5 -13 hhcurveto
        return
      </CharString>
      <CharString index="32">
        21 -70 callsubr
        -21 20 return
      </CharString>
      <CharString index="33">
        -105 callgsubr
        475 vlineto
        -107 callgsubr
        return
      </CharString>
      <CharString index="34">
        202 hmoveto
        -56 callsubr
        419 vlineto
        270 -419 rlineto
        -25 16 29 -21 26 hhcurveto
        162 hlineto
        26 20 -70 callsubr
        -20 20 -26 vhcurveto
        -84 -29 callgsubr
        -20 -25 hvcurveto
        -455 vlineto
        -295 454 rlineto
        23 -15 -28 23 -24 hhcurveto
        -144 hlineto
        -25 -20 -21 -25 hvcurveto
        -608 -27 callsubr
        return
      </CharString>
      <CharString index="35">
        71 -20 callsubr
        -26 -26 callgsubr
        -46 vlineto
        9 callgsubr
        380 hlineto
        -372 -369 rlineto
        -21 -21 -25 -26 -46 vvcurveto
        -54 vlineto
        9 callgsubr
        567 hlineto
        -47 callsubr
        -389 hlineto
        384 374 rlineto
        20 19 26 24 44 vvcurveto
        55 vlineto
        26 -20 20 -26 vhcurveto
        return
      </CharString>
      <CharString index="36">
        425 -70 rmoveto
        240 155 144 246 246 -155 144 -240 -240 -155 -144 -246 -246 155 -144 240 hvcurveto
        105 vmoveto
        -176 -97 114 171 171 96 114 177 177 96 -114 -171 -171 -97 -114 -176 hvcurveto
        return
      </CharString>
      <CharString index="37">
        vhcurveto
        92 hlineto
        25 21 20 25 hvcurveto
        return
      </CharString>
      <CharString index="38">
        -23 -18 -17 -23 2 hvcurveto
        15 -208 rlineto
        -23 2 16 -17 23 hhcurveto
        30 hlineto
        23 16 17 23 2 hvcurveto
        15 208 rlineto
        23 2 -18 17 -23 hhcurveto
        return
      </CharString>
      <CharString index="39">
        451 268 rmoveto
        -111 -42 -56 -84 -84 -42 56 111 111 42 55 84 84 42 -55 -111 vhcurveto
        169 hmoveto
        185 -98 92 -197 -197 -98 -92 -185 -91 26 -70 51 -47 vhcurveto
        -47 50 73 -23 95 hhcurveto
        95 73 23 47 50 hvcurveto
        51 47 26 70 91 vvcurveto
        return
      </CharString>
      <CharString index="40">
        rmoveto
        -47 -19 23 -29 52 hhcurveto
        40 hlineto
        32 36 25 31 6 hvcurveto
        29 157 rlineto
        44 8 -11 22 -42 hhcurveto
        -19 hlineto
        -37 -28 -27 -29 -12 hvcurveto
        return
      </CharString>
      <CharString index="41">
        -17 -13 -13 -17 hvcurveto
        -53 vlineto
        -102 callgsubr
        return
      </CharString>
      <CharString index="42">
        21 -21 700 -20 hstem
        return
      </CharString>
      <CharString index="43">
        -2 callsubr
        -26 -20 -21 -26 hvcurveto
        2 callgsubr
        30 callgsubr
        273 hlineto
        285 120 111 239 239 -120 111 -285 hvcurveto
        -5 -138 rmoveto
        179 47 -62 -150 -150 -47 -62 -179 hvcurveto
        -130 424 hlineto
        return
      </CharString>
      <CharString index="44">
        13 -28 hhcurveto
        -58 hlineto
        -13 -37 -9 -45 return
      </CharString>
      <CharString index="45">
        rmoveto
        17 -9 15 -10 13 vhcurveto
        -100 128 rlineto
        13 -10 -12 9 -18 hhcurveto
        -60 hlineto
        -20 -4 -17 -23 14 hvcurveto
        102 -167 -102 -167 rlineto
        -23 -14 4 -17 20 hhcurveto
        60 hlineto
        18 12 9 13 10 hvcurveto
        100 128 rlineto
        10 13 9 15 17 vvcurveto
        return
      </CharString>
      <CharString index="46">
        107 21 -21 169 138 255 138 return
      </CharString>
      <CharString index="47">
        26 -48 callgsubr
        return
      </CharString>
      <CharString index="48">
        61 rmoveto
        -102 callsubr
        return
      </CharString>
      <CharString index="49">
        10 9 16 7 26 hhcurveto
        29 hlineto
        28 17 -9 -16 -18 -17 -9 -28 hvcurveto
        -41 hlineto
        -11 -9 -10 -11 hvcurveto
        -26 vlineto
        -12 9 -9 11 vhcurveto
        39 hlineto
        34 18 -3 -25 -16 -18 -7 -28 hvcurveto
        -35 hlineto
        -26 -16 7 10 -9 hvcurveto
        return
      </CharString>
      <CharString index="50">
        hlineto
        -17 -13 -13 -17 hvcurveto
        -475 vlineto
        -102 callgsubr
        return
      </CharString>
      <CharString index="51">
        vlineto
        -60 callgsubr
        return
      </CharString>
      <CharString index="52">
        20 10 10 20 hvcurveto
        return
      </CharString>
      <CharString index="53">
        16 -13 -18 10 -25 hhcurveto
        -73 hlineto
        -17 -13 -13 -17 -104 return
      </CharString>
      <CharString index="54">
        hstem
        -52 callgsubr
        return
      </CharString>
      <CharString index="55">
        60 169 return
      </CharString>
      <CharString index="56">
        -27 -17 -37 -19 -51 hhcurveto
        -100 -33 49 110 111 33 49 95 return
      </CharString>
      <CharString index="57">
        25 hhcurveto
        73 hlineto
        17 13 13 17 return
      </CharString>
      <CharString index="58">
        9 9 hvcurveto
        9 9 return
      </CharString>
      <CharString index="59">
        -21 -23 callsubr
        return
      </CharString>
      <CharString index="60">
        26 -21 20 -26 vhcurveto
        -91 -29 callgsubr
        -20 -26 hvcurveto
        return
      </CharString>
      <CharString index="61">
        647 -20 callsubr
        -40 -26 -22 -24 -19 hvcurveto
        -487 -608 rlineto
        -21 -17 9 -25 25 hhcurveto
        78 hlineto
        40 26 22 24 19 hvcurveto
        487 608 rlineto
        21 17 -9 25 -25 hhcurveto
        return
      </CharString>
      <CharString index="62">
        119 hlineto
        136 145 73 132 45 -37 9 -13 hvcurveto
        -58 hlineto
        -28 -22 -13 -41 -20 hvcurveto
        -41 -20 -40 -26 -60 hhcurveto
        -97 hlineto
        -122 -53 38 112 -5 hvcurveto
        return
      </CharString>
      <CharString index="63">
        hlineto
        129 89 43 136 136 -89 43 -129 hvcurveto
        return
      </CharString>
      <CharString index="64">
        -77 -5 callgsubr
        333 111 return
      </CharString>
      <CharString index="65">
        -25 -30 callgsubr
        return
      </CharString>
      <CharString index="66">
        hlineto
        111 7 51 38 122 hhcurveto
        87 hlineto
        60 40 -26 -41 20 hvcurveto
        -41 20 31 callgsubr
        132 -145 73 -136 hvcurveto
        return
      </CharString>
      <CharString index="67">
        rmoveto
        43 27 -31 33 -52 hhcurveto
        -34 hlineto
        -32 -33 -26 -30 -9 hvcurveto
        -34 -112 rlineto
        -43 -13 16 -23 42 hhcurveto
        13 hlineto
        37 23 29 27 0 callsubr
      </CharString>
      <CharString index="68">
        vlineto
        -47 callgsubr
        return
      </CharString>
      <CharString index="69">
        -387 hlineto
        -102 callgsubr
        277 -44 callgsubr
        -138 147 hlineto
        -106 callgsubr
        return
      </CharString>
      <CharString index="70">
        vlineto
        -31 callsubr
        return
      </CharString>
      <CharString index="71">
        169 224 169 return
      </CharString>
      <CharString index="72">
        0 138 return
      </CharString>
      <CharString index="73">
        -65 -144 -21 155 118 319 118 return
      </CharString>
      <CharString index="74">
        hstemhm
        30 171 227 172 return
      </CharString>
      <CharString index="75">
        hstemhm
        60 -36 callgsubr
        return
      </CharString>
      <CharString index="76">
        -15 132 466 132 return
      </CharString>
      <CharString index="77">
        21 -21 25 vhcurveto
        return
      </CharString>
      <CharString index="78">
        hlineto
        -25 -21 return
      </CharString>
      <CharString index="79">
        505 rmoveto
        -107 callgsubr
        return
      </CharString>
      <CharString index="80">
        -145 73 -136 hvcurveto
        -74 callsubr
        return
      </CharString>
      <CharString index="81">
        -20 -20 -26 hvcurveto
        return
      </CharString>
      <CharString index="82">
        vmoveto
        -22 callgsubr
      </CharString>
      <CharString index="83">
        -47 -47 -43 -23 -41 hhcurveto
        -62 -31 39 78 hvcurveto
        return
      </CharString>
      <CharString index="84">
        159 86 159 return
      </CharString>
      <CharString index="85">
        -102 callsubr
        endchar
      </CharString>
      <CharString index="86">
        -20 25 vhcurveto
        return
      </CharString>
      <CharString index="87">
        hlineto
        -110 -105 -28 -120 -30 hvcurveto
        -88 -355 rlineto
        -17 -4 12 -15 17 hhcurveto
        100 hlineto
        20 20 15 21 5 hvcurveto
        return
      </CharString>
      <CharString index="88">
        rmoveto
        -17 -10 -7 -18 -75 66 -55 98 98 66 55 75 18 -10 7 -17 hvcurveto
        -37 hlineto
        -16 -12 -10 -15 -6 hvcurveto
        return
      </CharString>
      <CharString index="89">
        -21 -20 -26 hvcurveto
        2 callgsubr
        -25 21 -21 return
      </CharString>
      <CharString index="90">
        -66 callsubr
        -83 return
      </CharString>
      <CharString index="91">
        hlineto
        -11 callgsubr
        return
      </CharString>
      <CharString index="92">
        -21 26 vhcurveto
        return
      </CharString>
      <CharString index="93">
        11 -10 -8 14 -17 hhcurveto
        -30 hlineto
        -6 -16 -4 -20 -52 74 -37 60 hvcurveto
        36 hlineto
        72 68 20 74 hvcurveto
        return
      </CharString>
      <CharString index="94">
        hlineto
        -32 -114 rlineto
        -26 -7 9 -20 25 hhcurveto
        56 hlineto
        43 29 17 29 8 hvcurveto
        32 114 rlineto
        return
      </CharString>
      <CharString index="95">
        rmoveto
        35 17 -22 -43 -43 -17 -22 -35 return
      </CharString>
      <CharString index="96">
        26 21 -59 callsubr
        return
      </CharString>
      <CharString index="97">
        -20 hstem
        2 callsubr
        return
      </CharString>
      <CharString index="98">
        -11 callsubr
        94 hlineto
        -55 callgsubr
        return
      </CharString>
      <CharString index="99">
        21 -21 417 118 return
      </CharString>
      <CharString index="100">
        21 17 37 12 41 hhcurveto
        return
      </CharString>
      <CharString index="101">
        21 -21 562 138 return
      </CharString>
      <CharString index="102">
        -10 111 return
      </CharString>
      <CharString index="103">
        -9 91 -61 -21 224 91 71 91 142 91 hstemhm
        30 -7 callsubr
        return
      </CharString>
      <CharString index="104">
        1 callsubr
        432 138 hstem
        -1 callsubr
        return
      </CharString>
      <CharString index="105">
        -25 hvcurveto
        2 callgsubr
        return
      </CharString>
      <CharString index="106">
        -21 279 -20 hstem
        return
      </CharString>
      <CharString index="107">
        169 vstem
        return
      </CharString>
      <CharString index="108">
        43 36 40 29 50 26 26 -3 23 hhcurveto
        16 hlineto
        -105 callgsubr
        endchar
      </CharString>
      <CharString index="109">
        -608 vlineto
        return
      </CharString>
      <CharString index="110">
        608 vlineto
        return
      </CharString>
      <CharString index="111">
        rmoveto
        -15 -7 -15 -16 -17 vvcurveto
        -78 vlineto
        -17 15 -10 15 7 vhcurveto
        70 34 rlineto
        return
      </CharString>
      <CharString index="112">
        hstem
        70 -48 callsubr
        -2 callsubr
        return
      </CharString>
      <CharString index="113">
        rmoveto
        40 24 -24 -44 -44 -24 -24 -40 hvcurveto
        return
      </CharString>
      <CharString index="114">
        -10 -20 hstemhm
        -52 callgsubr
        return
      </CharString>
      <CharString index="115">
        -35 callgsubr
        186 138 return
      </CharString>
      <CharString index="116">
        -26 20 -20 26 vhcurveto
        return
      </CharString>
      <CharString index="117">
        50 366 -85 callsubr
        return
      </CharString>
      <CharString index="118">
        -33 callsubr
        10 return
      </CharString>
      <CharString index="119">
        144 366 return
      </CharString>
      <CharString index="120">
        -316 -130 113 263 118 263 113 hstem
        return
      </CharString>
      <CharString index="121">
        hlineto
        -105 callgsubr
        58 vlineto
        -106 callgsubr
        endchar
      </CharString>
      <CharString index="122">
        20 26 hvcurveto
        return
      </CharString>
      <CharString index="123">
        0 callgsubr
        258 345 rmoveto
        53 13 29 19 44 hhcurveto
        return
      </CharString>
      <CharString index="124">
        110 -70 70 -70 110 hstemhm
        return
      </CharString>
      <CharString index="125">
        vlineto
        -11 callsubr
        return
      </CharString>
      <CharString index="126">
        5 -49 callgsubr
        return
      </CharString>
      <CharString index="127">
        vlineto
        -10 8 -8 10 vhcurveto
        63 hlineto
        10 8 8 10 hvcurveto
        return
      </CharString>
      <CharString index="128">
        17 -13 13 -17 -110 -51 -30 -41 -56 vhcurveto
        31 vlineto
        return
      </CharString>
      <CharString index="129">
        90 1 callsubr
        150 133 149 138 hstem
        return
      </CharString>
      <CharString index="130">
        71 -71 113 9 68 10 113 -71 71 hstemhm
        return
      </CharString>
      <CharString index="131">
        -9 9 vhcurveto
        9 -9 -10 return
      </CharString>
      <CharString index="132">
        vlineto
        25 -48 callgsubr
        return
      </CharString>
      <CharString index="133">
        42 36 45 28 68 hhcurveto
        85 41 -41 -77 hvcurveto
        return
      </CharString>
      <CharString index="134">
        81 21 11 callsubr
        return
      </CharString>
      <CharString index="135">
        0 111 136 111 return
      </CharString>
      <CharString index="136">
        -6 callgsubr
        hstem
        return
      </CharString>
      <CharString index="137">
        -25 -49 callsubr
        return
      </CharString>
      <CharString index="138">
        22 -51 callsubr
        return
      </CharString>
</ttFont>
